<?xml version="1.0"?>
<svg xmlns:rdf="http://www.w3.org/1999/02/22-rdf-syntax-ns#" xmlns="http://www.w3.org/2000/svg" xmlns:cc="http://creativecommons.org/ns#" xmlns:xlink="http://www.w3.org/1999/xlink" xmlns:dc="http://purl.org/dc/elements/1.1/" xmlns:svg="http://www.w3.org/2000/svg" id="svg2" viewBox="0 0 386.52 383.57" version="1.1">
  <title id="title4296">2 Euro coin</title>
  <defs id="defs4">
    <linearGradient id="linearGradient8778-0">
      <stop id="stop8780-1" stop-color="#e6e6e6" offset="0"/>
      <stop id="stop8782-6" stop-color="#ccc" stop-opacity=".7459" offset="1"/>
    </linearGradient>
    <linearGradient id="linearGradient4288" x1="-225.11" xlink:href="#linearGradient8778-0" gradientUnits="userSpaceOnUse" x2="980.7" y1="472.53" y2="472.53"/>
    <linearGradient id="linearGradient4290" x1="-177.48" xlink:href="#linearGradient8778-0" gradientUnits="userSpaceOnUse" x2="946.05" y1="459.51" y2="459.51"/>
    <linearGradient id="linearGradient4292" y2="129.08" gradientUnits="userSpaceOnUse" y1="129.08" x2="1012.4" x1="-224.48">
      <stop id="stop3974" stop-color="#d0c27b" offset="0"/>
      <stop id="stop3976" stop-color="#d0c27b" stop-opacity=".77778" offset="1"/>
    </linearGradient>
    <linearGradient id="linearGradient4294" x1="-224.48" xlink:href="#linearGradient8778-0" gradientUnits="userSpaceOnUse" y1="129.08" gradientTransform="matrix(.21872 0 0 .36201 394.43 674.13)" x2="1012.4" y2="129.08"/>
  </defs>
  <g id="layer2" transform="translate(-137.24 -270.45)">
    <g id="g4234" transform="translate(-149.29 -258.57)">
      <path id="path3165" d="m977.83 472.53c0 324.69-268.64 587.91-600.03 587.91s-600.03-263.22-600.03-587.91 268.64-587.91 600.03-587.91 600.03 263.22 600.03 587.91z" transform="matrix(.31224 0 0 .31617 361.82 571.41)" stroke="#000" stroke-width="5.7499" fill="url(#linearGradient4288)"/>
      <path id="path3167" d="m945.71 459.51c0 8.6788-251.36 15.714-561.43 15.714s-561.43-7.0355-561.43-15.714c0-8.6788 251.36-15.714 561.43-15.714s561.43 7.0355 561.43 15.714z" transform="matrix(.31804 0 0 11.292 358.88 -4469)" stroke="#000" stroke-width=".66616" fill="url(#linearGradient4290)"/>
      <path id="path7998" d="m1012.2 129.08c0 205.3-276.78 371.74-618.21 371.74s-618.21-166.43-618.21-371.74c0-205.3 276.78-371.74 618.21-371.74s618.21 166.43 618.21 371.74z" transform="matrix(.21872 0 0 .36201 394.43 674.13)" stroke="#000" stroke-width="2.1364" fill="url(#linearGradient4292)"/>
      <path id="path7998-6" fill="url(#linearGradient4294)" d="m615.64 727.83c-1.1415 2.3182-1.8775 4.9187-2.1117 7.74-0.12692 2.5904 0.0699 4.9584 0.52298 7.0974 0.7963-4.863 1.331-9.8142 1.5887-14.837z"/>
      <path id="path9175" stroke-width=".60115px" stroke="#000" fill-opacity=".31373" d="m634.26 716.62c-11.078 0.004-19.805 7.7853-20.732 18.956-0.64354 13.135 6.8873 20.637 15.305 20.776 9.2817-0.0897 16.523-4.8795 19.864-18.576-0.60114-0.26747 2.6658-17.951-14.436-21.156zm-2.4866 2.2392c0.64491-0.0192 1.3111 0.0154 2.0031 0.11683 10.776 4.9642 9.1113 9.1467 9.019 18.099-1.6566 7.8522-4.8978 17.932-14.2 16.444 0 0-12.28-0.52005-9.5716-18.888 2.453-9.8512 6.5149-15.587 12.749-15.772z"/>
      <path id="path7759" stroke-width=".60115px" stroke="#000" fill-opacity=".12941" d="m496.88 715.53c2.6983 0.0714 5.2548-1.2224 7.8941-1.7803 1.1246-0.23771 2.2639-0.40691 3.3832-0.6676 0.83427-0.19432 1.6238-0.65861 2.481-0.6676 1.2399-0.013 2.4582 0.43402 3.6088 0.89013 0.56243 0.22297 1.0546 1.1903 1.5788 0.89013 0.58523-0.33508 0.0281-1.3358 0-2.0028-0.0376-0.89244-0.77625-1.9614-0.22555-2.6704 0.5113-0.65826 1.6926-0.1576 2.481-0.44507 0.97971-0.3572 2.3234-0.59908 2.7066-1.5577 0.28796-0.72044 0.67664-2.2253-0.67664-2.2253s-3.2824 0.17982-4.7365-0.44506c-0.82999-0.3567-1.7672-0.9255-2.0299-1.7803-0.51869-1.6873 1.7735-3.4045 1.3533-5.1183-0.4507-1.8381-3.091-2.485-3.8343-4.2281-0.43829-1.0279 0.09-2.2672-0.22554-3.338-0.26301-0.89248-0.87272-1.6484-1.3533-2.4479-0.63833-1.0618-1.9744-1.8821-2.0299-3.1155-0.0791-1.7568 1.5788-4.4507 2.481-4.6732 0.90219-0.22254 2.212-0.90529 2.0299-1.7803-0.28681-1.3787-2.6337-1.3046-4.0598-1.3352-0.54721-0.0117-1.1004 0.70732-1.5788 0.44507-0.47845-0.26226-0.57684-1.0322-0.45109-1.5577 0.28119-1.1752 2.6771-1.4785 2.481-2.6704-0.12399-0.75385-1.2574-1.0644-2.0299-1.1127-0.80811-0.0505-1.5986 0.423-2.2555 0.89013-1.0386 0.73861-1.6948 1.896-2.481 2.8929-0.39717 0.5036-1.1518 0.92007-1.1277 1.5577 0.0218 0.57894 1.1543 0.75645 1.1277 1.3352-0.0433 0.94316-1.4491 1.2525-2.0299 2.0028-0.36792 0.47526-1.108 0.99522-0.90218 1.5577 0.21811 0.59612 1.278 0.30428 1.8044 0.6676 0.56794 0.39203 1.22 0.8866 1.3533 1.5577 0.13711 0.69058-0.56239 1.3082-0.67664 2.0028-0.0602 0.36609-0.19763 0.79717 0 1.1127 0.26515 0.42329 1.183 0.19923 1.3533 0.66761 0.25005 0.68765-1.4568 1.5187-0.90219 2.0028 0.985 0.8598 2.1158-1.6564 3.3832-2.0028 0.36228-0.099 0.83451-0.23208 1.1277 0 0.54068 0.42792 0.37546 1.323 0.45109 2.0028 0.0738 0.66362 0 1.1127 0 2.0028 0 0.89014-0.11485 2.0832 0 3.1155 0.0756 0.6798 0.59224 1.3332 0.45109 2.0028-0.20822 0.98778-0.96278 1.8748-1.8044 2.4479-0.70549 0.48043-1.6653 0.40757-2.481 0.6676-0.61125 0.19485-1.5491 0.086-1.8044 0.6676-0.38834 0.88492 1.3174 1.7244 1.1277 2.6704-0.18571 0.92618-1.1458 1.6415-2.0299 2.0028-0.90297 0.36903-2.3606-0.78229-2.9321 0-0.27803 0.38059 0.0585 1.0705 0.45109 1.3352 1.243 0.83816 3.0138-0.37869 4.5109-0.22254 1.1607 0.12106 2.6721-0.023 3.3832 0.89013 0.36643 0.47058 0.0963 1.1945 0 1.7803-0.0762 0.46308-0.0868 1.0337-0.4511 1.3352-1.5721 1.3013-4.2411 0.0113-6.0898 0.89014-1.3897 0.66065-3.7444 1.6358-3.3832 3.1155 0.12814 0.52501 1.0317 0.43059 1.5788 0.44506z"/>
      <path id="path4129" stroke-width=".60115px" stroke="#000" fill-opacity=".12941" d="m585.19 604.83c-0.53838 0.038-1.115 0.20231-1.5887 0.32129-1.049 0.26344-1.9604 0.87-2.8518 1.509l0.20722 0.039-2.8024 2.434 0.49339 3.6217-3.2662-1.8303-1.4604 0.67178c-1.0883 0.82971-2.172 1.6589-3.2859 2.4534-1.3778 0.98268-2.934 1.7442-4.174 2.8915-3.0242 2.7982-5.4762 6.173-7.7856 9.5703-1.1243 1.654-2.4262 3.2998-2.9307 5.2281-0.25401 0.97097 0.46884 2.1186 0 3.0084-0.42262 0.80202-2.0366 0.67863-2.2498 1.5577-0.14831 0.61137 0.89795 1.1085 0.89795 1.6648 0 0.55633 0.45391 1.8915 0.45391 2.3366 0 0.44507-1.4087 0.17242-1.8058 0.67177-0.1861 0.23404-0.13172 0.58938-0.10854 0.88596 0.042 0.5378 0.77416 1.1278 0.44404 1.5577-0.56606 0.73724-1.9898-0.44367-2.8123 0-1.5291 0.82478-1.6473 3.0723-2.8222 4.3422-1.4443 1.5611-3.4088 2.5622-5.072 3.8943-2.486 1.9912-6.1924 3.1713-7.3317 6.1238-0.28369 0.73516 0.75654 1.6686 0.3355 2.3366-0.25048 0.39739-1.041 0.0847-1.3519 0.43811-0.70082 0.7966-0.46835 2.0647-0.56246 3.1155-0.0796 0.88899-0.63961 2.0463 0 2.6774 0.66286 0.654 2.2227-0.71908 2.8123 0 0.21788 0.26573-0.12512 0.67325-0.21709 1.0028-0.15769 0.56496-0.25875 1.1672-0.57233 1.6648-0.13998 0.22217-0.3626 0.38302-0.56245 0.55494-0.28313 0.24357-0.82624 0.30798-0.89796 0.67178-0.0834 0.42286 0.32009 0.85357 0.671 1.1099 0.37573 0.27444 1.1063-0.0553 1.3617 0.33102 0.47983 0.7257-0.48897 1.6948-0.45392 2.5605 0.0357 0.88088-0.10542 2.1242 0.67101 2.5605 1.0565 0.59365 2.4887-0.34144 3.503-1.0028 0.4466-0.29117 0.67578-0.81926 1.0164-1.2267 0.373-0.44621 0.7038-0.93143 1.1249-1.3338 0.92261-0.88154 2.2104-1.3686 3.0392-2.3366 0.71612-0.83631 0.47039-2.9425 1.5788-2.8915 0.77441 0.0356 0.64092 1.3945 0.90782 2.1127 0.21705 0.584 0.22742 1.2547 0.56246 1.7817 0.40934 0.64378 1.2567 0.92762 1.6874 1.5577 1.1707 1.7129 1.5207 3.85 2.2597 5.7831 0.38234 1.0001 0.72332 2.0157 1.1249 3.0084 0.53091 1.3124 1.4717 3.1155 1.6972 3.8943 0.22555 0.77887 1.1908 1.3028 1.4604 2.1127 0.34098 1.0243 0.11841 2.7872 0.11841 3.2323 0 0.44506 0.12437 0.79077 0.44404 0.88596 0.5023 0.14956 1.0414-0.36892 1.3617-0.77887 0.68949-0.88222 0.37976-2.2328 0.89796-3.2226 0.24567-0.46924 0.63317-0.85794 1.0164-1.2267 0.61418-0.59105 1.5433-0.86248 2.0327-1.5577 0.42668-0.60614 0.55787-1.3832 0.671-2.1127 0.26716-1.7227 0.0656-3.4866 0-5.2281-0.0378-1.0049-0.63761-2.088-0.22695-3.0084 0.26991-0.60489 1.0694-0.79753 1.5788-1.2267 0.54518-0.45932 1.0379-0.9767 1.5788-1.4409 0.40389-0.34661 0.87616-0.61847 1.2433-1.0028 0.57358-0.6004 1.2127-1.2206 1.4703-2.0056 0.17324-0.52796 0.36703-1.2443 0-1.6648-0.17363-0.19892-0.63249 0.0952-0.78941-0.11683-0.13363-0.18053 0.077-0.44067 0.10854-0.66204 0.0424-0.29776 0.13128-0.59584 0.10854-0.89569-0.0204-0.26851-0.0122-0.60101-0.21708-0.77887-0.59859-0.51963-1.7019 0.10093-2.3682-0.33101-0.66383-0.43032-0.96262-1.2725-1.2433-2.0056-0.22895-0.59793-0.34216-1.2496-0.3355-1.8888 0.008-0.75734 0.35222-1.4776 0.44404-2.2295 0.10319-0.84504-0.0905-1.725 0.11842-2.5508 0.21164-0.8366 0.82328-1.5273 1.1249-2.3366 0.20213-0.54229 0.23485-1.1387 0.45392-1.6746 0.28967-0.7086 0.7041-1.3642 1.1249-2.0056 0.50939-0.77643 1.1716-1.4475 1.6874-2.2198 0.33404-0.50013 0.68416-1.0009 0.90782-1.5577 0.24162-0.60152 0.18104-1.3004 0.45392-1.8888 0.21272-0.45866 0.58062-0.83125 0.89795-1.2267 0.46463-0.57901 1.2396-0.972 1.4703-1.6746 0.13939-0.42458 0.10274-0.94448-0.11841-1.3338-0.092-0.16194-0.35313-0.17427-0.45392-0.33102-0.30718-0.47779-0.41193-1.1041-0.3355-1.6648 0.0676-0.49624 0.41236-0.91867 0.68087-1.3435 0.52526-0.83113 1.3626-1.4602 1.8058-2.3366 0.24408-0.48265 0.22268-1.0645 0.44404-1.5577 0.14301-0.31862 0.40945-0.57188 0.56246-0.88596 0.39702-0.81497 0.19104-1.9971 0.90782-2.5605 0.53325-0.41917 1.3653-0.0867 2.0327-0.22392 0.37074-0.0762 0.7244-0.44378 1.0854-0.33102 1.1334 0.35398 1.5352 1.7995 2.1808 2.7844 0.69435 1.0594 1.5478 2.1037 1.8058 3.3394 0.1825 0.87398-0.0244 1.798-0.22696 2.6676-0.46892 2.0135-1.4158 3.8923-2.2597 5.7831-0.61005 1.3668-1.1621 2.7828-2.0229 4.0112-0.81667 1.1654-2.3324 1.8275-2.9307 3.1155-0.85084 1.8316-1.0164 4.0196-0.68087 6.007 0.49206 2.914 1.47 6.2053 3.8385 8.0126 1.2711 0.96996 3.1932 1.3278 4.7365 0.88596 1.4795-0.42357 2.1021-2.2589 3.3747-3.1155 1.5836-1.066 3.3207-2.0261 5.1904-2.4437 0.95279-0.2128 1.9624-0.12777 2.9307 0 1.6996 0.22429 3.6602 0.2343 4.9634 1.3338 0.56172 0.4739 0.75309 1.2828 0.90782 1.9958 0.1577 0.7267 0.37683 1.586 0 2.2295-1.1301 1.9298-3.7403 2.5997-5.8713 3.3394-0.93252 0.3237-1.9464 0.35741-2.9307 0.44784-2.2478 0.20654-5.4098-1.5641-6.7692 0.21419-0.37374 0.48889 0.17266 1.2358 0.45392 1.7817 0.53342 1.0353 1.8592 1.5853 2.2597 2.6774 0.35813 0.97652-0.22555 2.0028 0 3.1155 0.22554 1.1127 1.2738 0.80957 1.8058 1.3338 1.0622 1.0466 3.3748 2.2287 2.7037 3.5536-0.30289 0.59802-1.3733 0.1536-2.0327 0-0.81603-0.19006-1.4465-0.87279-2.2498-1.1099-1.2344-0.36433-2.5504-0.47325-3.8385-0.44785-1.4452 0.0285-3.3154-0.38805-4.2826 0.67177-0.95654 1.0482-0.34827 2.82-0.22696 4.2254 0.14397 1.6677 0.32964 3.4187 1.1249 4.8971 0.77345 1.4379 2.9499 1.993 3.3846 3.5633 0.18293 0.66079-0.15345 1.3881-0.45391 2.0056-0.62382 1.2821-1.6332 2.3774-2.7038 3.3296-0.92974 0.82699-1.9249 1.7911-3.1576 2.0056-1.6707 0.29067-3.2921-0.82317-4.9634-1.1099-2.4615-0.42226-4.9466-1.0485-7.4402-0.89569-3.0933 0.18959-8.1169 2.2295-9.019 2.2295-0.90219 0-3.8343 1.1099-4.7365 1.1099-0.90218 0-2.0158 1.0629-2.9406 0.67177-1.766-0.74684-2.2532-3.1232-2.9307-4.8971-0.56664-1.4836-1.035-3.0935-0.89796-4.6732 0.10965-1.2636 0.98672-2.3473 1.3519-3.5633 0.39333-1.3098 1.0886-2.6483 0.89796-4.0014-0.15278-1.0844-0.58874-2.3972-1.5788-2.8915-0.94838-0.47351-2.3082-0.19222-3.1576 0.43812-1.3191 0.97878-1.8557 2.839-2.0229 4.459-0.14027 1.3591 0.63378 2.6604 0.89795 4.0014 0.34933 1.7733 0.34084 3.6273 0.90783 5.345 0.67644 2.0493 3.4926 3.7004 2.9307 5.7831-0.2093 0.77585-1.4771 0.74729-2.0327 1.3338-0.82801 0.87394-0.77947 2.4784-1.8058 3.1155-0.89322 0.55441-2.1031 0.18658-3.1576 0.22393-0.67714 0.024-1.3734 0.15395-2.0327 0-1.3069-0.30515-2.7281-2.7881-3.6017-1.7817-0.8407 0.96847 2.4568 1.8568 2.2498 3.1155-0.16366 0.99506-1.6509 1.1882-2.4768 1.7817-1.6539 1.1885-3.1642 2.602-4.9634 3.5633-1.0478 0.55985-2.562 1.1229-4.2628 1.6746 6.1724 0.002 12.221 0.0743 12.216 0.35049l-0.0592 3.3978 0.0296 4.6635c-0.70724 0.40944-1.4143 0.78336-2.1216 0.17524l-0.43417-4.1085-0.79928-1.8888-2.8715-0.15577h-4.6279l-4.1444 0.63283-2.388 14.156 1.115 0.32128h2.388l4.1543-0.47706 1.4308-0.62309 1.115-1.4214 1.4407-2.3561h0.63153l0.79928 1.4117-2.0722 4.4103 0.31576 5.9778-1.115 1.1002-1.115-1.1002v-4.2546l-0.64139-0.62309h-7.6475l-1.5986 0.62309-1.7564 10.077-0.63153 3.6217 1.2729 1.5675 1.2729 0.63283h6.2265l4.4602-0.63283 2.0722-0.94438s1.5973-0.7274 2.0722-1.4117c0.77219-1.1127-0.11617-3.0984 0.95716-3.9333 0.25049-0.19485 0.68583-0.16546 0.95716 0 0.50561 0.3083 0.73033 0.985 0.79929 1.5675 0.10771 0.90985-0.404 1.7918-0.6414 2.6774-0.24088 0.89854-0.78942 2.6774-0.78942 2.6774l-2.8715 1.8888-4.3122 0.31155-6.2166-0.31155h-5.4272s-3.716-0.0664-5.5752-0.15577c-1.5435-0.0742-4.3091 1.1706-4.6279-0.32129-0.2355-1.102 2.0482-0.99209 3.0294-1.5675 0.49432-0.28987 1.0384-0.53896 1.4407-0.94438 0.48489-0.4887 0.87671-1.0908 1.115-1.733 3.4526-9.3029 4.1189-29.11 4.1444-29.908-0.0204 0.0158-0.0581 0.0349-0.11841 0.0584-1.2864 0.50241-3.4205 1.1428-4.6378 1.7914-1.522 0.81099-2.6961 2.2114-4.2826 2.8915-0.63676 0.27299-1.3475 0.55781-2.0328 0.44785-1.2962-0.20799-2.1095-1.6586-3.3747-2.0056-0.79861-0.21898-1.6659-0.1141-2.4866 0-0.54224 0.0754-1.1577 0.10246-1.5788 0.44785-0.77484 0.63554-1.4136 1.6753-1.3519 2.6676 0.0331 0.53275 0.53817 0.93521 0.89796 1.3338 0.85372 0.94582 1.9438 1.6553 2.9406 2.4534 1.3303 1.0652 2.9347 1.837 4.0556 3.1155 0.39611 0.45176 0.65139 1.0122 0.89795 1.5577 0.67776 1.4997 1.3732 3.0438 1.5788 4.6732 0.12107 0.95908-0.21709 2.0014-0.21709 2.8915 0 0.89014-0.0578 2.4318-0.45391 3.5633-0.57218 1.6345-1.6031 3.1035-2.7037 4.4493-1.0361 1.2668-2.0288 2.8798-3.6116 3.3394-0.8083 0.2347-1.6809-0.20469-2.4866-0.44785-1.2535-0.3783-2.3928-1.0576-3.6017-1.5577-1.4933-0.61772-2.9772-1.2655-4.5095-1.7817-1.0356-0.34881-2.1016-0.60298-3.1576-0.88596-2.0264-0.543-4.0087-1.3536-6.0982-1.5577-1.3474-0.13166-2.7122 0.0574-4.0556 0.22392-0.76166 0.0944-1.9213-0.24169-2.2597 0.43811-0.5188 1.0422 1.544 1.9549 1.5788 3.1155 0.0338 1.1292-0.64508 2.2267-1.3519 3.1155-0.69605 0.87521-2.138 1.0432-2.7037 2.0056-0.30437 0.51778-0.0984 1.1967-0.22696 1.7817-0.26714 1.2158-0.42406 2.5291-1.1249 3.5633-0.32584 0.48081-0.89181 0.7514-1.3519 1.1099-0.88693 0.69111-2.0882 1.0768-2.7136 2.0056-1.0282 1.5269-0.99391 3.5364-1.3519 5.3352-0.10244 0.51476-0.14584 1.0393-0.22696 1.5577-0.20956 1.3393-0.49638 2.667-0.671 4.0112-0.1054 0.81134-0.5845 1.7057-0.22695 2.4437 1.0516 2.1707 5.6372 3.1113 6.0884 4.0014 0.45109 0.89013 2.0826 2.2986 3.3846 3.1155 0.685 0.42973 1.471 0.70627 2.2597 0.8957 1.5411 0.37011 3.1522 0.37311 4.7365 0.44784 2.0271 0.0956 4.0591-0.0267 6.0884 0 2.7078 0.0357 5.519 0.9542 8.1211 0.21419 1.2991-0.36945 2.1858-1.5846 3.3747-2.2198 1.0068-0.53787 2.1835-0.74024 3.1576-1.3338 1.0922-0.66548 1.8128-2.2309 2.9406-2.4534 1.1277-0.22253 0.20801-1.7756 0.21709-2.6676 0.0121-1.1899-0.49033-2.4043-0.21709-3.5633 0.27433-1.1636 1.1253-2.1207 1.7959-3.1155 0.68321-1.0134 1.2018-2.2656 2.2597-2.8915 0.78375-0.46368 1.576-0.003 2.7037-0.44785 1.1277-0.44507 2.354-1.5725 3.6116-2.2198 1.0151-0.52247 2.0935-0.91698 3.1577-1.3338 0.81725-0.32012 1.9983-0.16785 2.4768-0.8957 0.57413-0.87331-0.29127-2.0771-0.21709-3.1155 0.0757-1.059-0.13268-2.4095 0.67101-3.1155 1.1844-1.0404 3.151-0.41195 4.7365-0.43812 1.2058-0.0199 2.4149 0.36251 3.6116 0.21419 2.1932-0.27185 4.4881-0.76846 6.3153-1.9958 0.88496-0.59445 1.2905-1.6922 2.0327-2.4534 1.181-1.2111 2.1736-2.9418 3.8287-3.3394 1.2061-0.28972 2.8483-0.0701 3.6116 0.8957 0.78475 0.99298-0.48625 2.6133 0 3.7775 0.24369 0.58346 0.90042 0.89651 1.3519 1.3436 0.4498 0.44541 0.9007 0.88974 1.3519 1.3338 0.67675 0.6661 1.4111 1.2794 2.0327 1.9958 0.66614 0.76782 1.184 1.6502 1.8058 2.4534 0.58365 0.75403 1.0584 1.6228 1.8058 2.2198 0.78433 0.62643 1.9263 0.70879 2.7037 1.3436 0.9488 0.7747 1.2625 2.1652 2.2498 2.8915 0.84131 0.61896 1.9684 0.7198 2.9406 1.1099 0.53091 0.21303 1.1046 0.35423 1.5788 0.67177 0.43878 0.29382 0.732 0.75852 1.1249 1.1099 0.79137 0.70768 1.5931 1.4138 2.4768 2.0056 1.2815 0.85824 2.8072 1.3287 4.0655 2.2198 0.90793 0.64294 2.0256 1.2207 2.4768 2.2295 0.27224 0.60865 0.0815 1.3354 0 1.9958-0.11266 0.91258-0.4751 1.7786-0.67101 2.6774-0.17647 0.80962-0.99127 1.8075-0.45391 2.4437 0.28849 0.34155 0.90125 0 1.3519 0 1.1277 0 1.1401-0.64177 1.5788-1.1099 0.89349-0.95334 1.7877-2.0636 2.0327-3.3394 0.17013-0.88589-0.0353-1.8661-0.45391-2.6676-0.29194-0.5589-1.0815-0.76445-1.3519-1.3338-0.35318-0.74361-0.68165-1.7656-0.22696-2.4534 0.25968-0.39284 0.88077-0.51038 1.3519-0.44785 0.53796 0.0714 0.84168 0.71288 1.3519 0.8957 1.3524 0.48457 3.1597 1.3231 4.2924 0.44784 0.41823-0.32317 0.45601-1.0896 0.21709-1.5577-0.84677-1.6591-3.2468-1.8932-4.9536-2.6774-1.3179-0.60548-2.9255-0.6677-4.0655-1.5577-1.1426-0.89205-1.2764-2.7388-2.4768-3.5536-1.5946-1.0823-3.9562-0.40957-5.6443-1.3436-1.4809-0.81934-2.7996-2.0771-3.6017-3.5536-0.72437-1.3334-0.13863-3.1406-0.90782-4.4493-0.0478-0.0813-0.0929-0.15843-0.14802-0.23366-1.5114 0.2242-3.0178 0.27819-4.5293 0.0584-2.3874-0.24974-4.2973-1.2043-6.0884-2.3366-1.2253-1.0636-2.1036-2.6985-2.8814-4.498 0.13011-4.2719 0.37829-8.5128 0.95716-12.637l2.2005-14.292c0.33011-1.3842 0.10069-2.1391-0.62166-2.3366l-2.8715-0.16551-0.0592-0.77886 0.74008-0.67177 5.6344 0.16551 4.7957-0.0487h2.536l0.3355 0.66204-0.16775 0.67177s-0.44828 0.0487-0.73021 0.0487h-1.0756l-1.7466 0.34075-1.0164 0.66204-0.16775 0.38944-0.33551 2.0056-3.1576 20.922-0.22696 2.9986 0.10855 2.5021 0.90782 1.8401 3.0392 1.8888 1.2631 0.0974c-0.11088-0.11639-0.21332-0.23794-0.3059-0.36996-0.73138-1.043-1.4416-2.2982-1.3519-3.5633 0.0659-0.92858 0.94614-1.613 1.3519-2.4534 0.59366-1.2296 0.38588-3.0921 1.5788-3.7775 1.0485-0.60242 2.4645 0.0576 3.6116 0.44785 0.82978 0.28233 1.4619 0.97279 2.2597 1.3338 1.0806 0.489 2.4616 0.37052 3.3846 1.1099 0.29128 0.23334 0.54367 0.50053 0.76968 0.7886l0.63153-1.6259 1.0756-5.7831 1.2927-7.9542 0.74007-3.8943c0.0376-1.8944 0.0118-1.994 0.0493-3.057l0.11841-1.9472-0.0592-1.2267-0.10855-1.0612-0.78941-0.33102h-1.638l-0.89795-0.28234-0.17762-0.77886 0.0592-0.60362 0.84862-0.11683 3.4339 0.0584 4.0063 0.0584 1.9735 0.0487 0.0592 0.94437-0.22696 0.56468c-0.62025-0.0614-1.2447-0.038-1.865 0.0487-1.1747 0.29672-1.1806 1.5127-1.6874 2.3366l-1.638 7.0682-3.0392 16.804-1.0953 2.58c0.42409 0.91396 0.80351 1.8673 1.3223 2.7066 0.50976 0.82473 0.8616 1.7862 1.5788 2.4437 0.81288 0.74524 1.9845 0.98576 2.9307 1.5577 2.0259 1.2247 3.9561 2.601 5.8614 4.0014 1.5444 1.1352 3.8925 1.7634 4.5095 3.5633 0.2975 0.86788-0.71526 1.7525-0.671 2.6676 0.0647 1.3369 0.88345 2.5311 1.3519 3.7872 0.36132 0.96891 0.70295 1.9468 1.1249 2.8915 0.47454 1.0625 0.91922 2.1539 1.5788 3.1155 1.016 1.4811 3.386 3.121 3.6116 4.0112 0.22555 0.89013-0.59142 1.0348-0.45391 1.5577 0.26689 1.0151 1.8519 1.2513 2.2597 2.2198 0.34581 0.82115-0.34413 1.8458 0 2.6676 0.48757 1.1644 1.5003 2.2563 2.7037 2.6774 1.353 0.47341 3.0235 0.23254 4.2826-0.44785 0.84566-0.457 1.4366-1.3507 1.8058-2.2295 0.25982-0.61842 0.18907-1.3274 0.22695-1.9958 0.0505-0.89106 0.25324-1.8206 0-2.6774-0.2741-0.92736-1.1581-1.5714-1.5788-2.4437-0.5109-1.0592-0.68623-2.2492-1.1249-3.3394-0.39747-0.98782-1.2506-1.8344-1.3617-2.8915-0.10347-0.98424-0.24222-2.5047 0.68087-2.8916 0.80786-0.33859 1.3859 1.4158 2.2597 1.3338 0.89981-0.0844 1.2749-1.2809 2.0229-1.7816 1.1137-0.74566 2.5888-0.91837 3.6116-1.7817 0.49102-0.41447 0.50674-1.372 1.1249-1.5577 0.6154-0.18488 1.2219 0.40545 1.8058 0.67177 0.70294 0.3206 1.2778 0.93959 2.0327 1.1099 1.3199 0.29775 2.8516 0.38724 4.0556-0.22393 0.85509-0.43406 1.0422-1.6431 1.8058-2.2198 1.0433-0.7879 2.7961-0.54135 3.6116-1.5577 0.52297-0.65181 0.73425-1.6695 0.45392-2.4534-0.72704-2.0332-4.0536-2.2651-4.9634-4.2254-0.75188-1.6199-0.11205-3.5667 0-5.345 0.10054-1.5958 0.0254-3.2919-0.0789-5.0139-1.099-2.8941-1.655-6.3478-1.4604-10.32 0.85386-10.286 8.3205-17.697 18.147-18.81-0.33172-5.5553-1.1127-11.087-1.9538-16.59-1.0156-6.6448-2.111-13.3-3.8287-19.803-0.71952-2.724-1.7599-5.3561-2.7037-8.0126-1.511-4.2526-2.9219-8.5503-4.7365-12.686-0.61789-1.4082-1.3296-2.7682-2.0525-4.128l-2.8912 1.3338 0.78941-3.573-2.5952-2.6482 2.1314-0.21418c-1.2063-2.6554-2.2875-5.37-3.73-7.9055-0.95343-1.6758-1.9717-3.3162-3.0392-4.9263l0.12829 0.95411-3.2662-1.8303-3.3945 1.5675 0.77955-3.573-2.5853-2.6481 3.7497-0.3797 0.14801-0.2726c-0.0624-0.0809-0.12486-0.1627-0.18748-0.2434-1.9428-2.5035-3.8682-5.089-6.3153-7.1169-1.0207-0.84585-2.0974-1.9564-3.207-3.0765l0.2467 1.8303-3.2662-1.8206-3.4044 1.5675 0.78941-3.573-2.5853-2.6482 1.6479-0.16551c-0.56882-0.13468-1.1383-0.17119-1.7071-0.0682 0.4918-0.77178 1.1474-1.3519 2.013-1.2851 1.5142 0.11687 0.67358-0.42995 0.78942-0.77887 0.23617-0.7114-0.0717-1.5216-0.34537-2.2198-0.43997-1.1224-2.0588-1.8055-2.0229-3.0084 0.0166-0.556 0.78683-0.82576 1.0164-1.3338 0.31255-0.69176 0.92065-1.6358 0.44404-2.2295-0.30348-0.37804-0.80361-0.46637-1.342-0.42838z"/>
      <path id="path4125" stroke-width=".60115px" stroke="#000" fill-opacity=".12941" d="m631.77 718.86c-5.3456 0.15893-9.0881 4.403-11.595 11.819 0.49013 0.009 0.98146 0.0287 1.4308-0.0195 1.421-0.15243 2.8813 0.0638 4.2826-0.21419 1.9574-0.38837 4.4691-0.40596 5.6344-2.0056 1.8901-2.5946 0.57917-6.3177 0.27629-9.5801-0.01 0.00027-0.0198-0.00029-0.0296 0z"/>
      <path id="path3067" stroke-width=".60115px" stroke="#000" fill-opacity=".12941" d="m514.49 719.76-2.5557 0.14604c-0.0469 0.0156-0.10281 0.0333-0.14802 0.0487-0.80874 0.2755 2.4607-0.2029 2.7037-0.0876 0.00028-0.009 0-0.1071 0-0.1071z"/>
      <path id="path7761" stroke-width=".60115px" stroke="#000" fill-opacity=".12941" d="m480.64 701.95c-0.84414-1.2631-0.21177-3.411 0.90218-4.4507 1.1586-1.0814 3.2142-0.19842 4.7365-0.6676 0.64186-0.19783 1.6967-0.23524 1.8044-0.89014 0.0851-0.51774-0.65225-0.87809-1.1277-1.1127-0.95099-0.46915-2.5528 0.41769-3.1577-0.44507-0.7886-1.1249-0.17917-3.1498 0.90219-4.0056 0.70375-0.55698 1.8896-0.37755 2.7066 0 0.53176 0.24573 0.55848 1.1931 1.1277 1.3352 0.78501 0.19593 1.8015-0.22857 2.2555-0.89013 0.59009-0.85994-0.74426-2.3811 0-3.1155 0.69111-0.68187 1.9775-0.20687 2.9321 0 1.0514 0.22784 2.352 0.44059 2.9321 1.3352 0.60779 0.93723 0.49547 2.3385 0 3.338-0.37662 0.75976-1.6533 0.79797-2.0299 1.5577-0.56153 1.1328 0.0425 2.5228 0 3.7831-0.0376 1.1145 0.50528 2.4874-0.22555 3.338-0.849 0.9882-2.5461 0.63928-3.8343 0.89013-1.8674 0.36366-3.7358 0.93599-5.6387 0.89013-1.4593-0.0352-3.4818 0.31227-4.2854-0.89013z"/>
      <path id="path7745" stroke-width=".60115px" stroke="#000" fill-opacity=".12941" d="m514.92 774.05c-0.50401 0.0181-0.98324 0.32951-1.3533 0.6676-0.32165 0.29389-0.68063 0.68016-0.67664 1.1127 0.006 0.69976 0.60296 1.3095 1.1277 1.7803 0.87067 0.78111 2.0412 1.9249 3.1576 1.5577 0.79743-0.26226 0.80607-1.4591 1.1277-2.2253 0.18196-0.43343 0.64897-0.90862 0.45109-1.3352-0.57522-1.24-2.453-1.6075-3.8343-1.5577z"/>
      <path id="path7747" stroke-width=".60115px" stroke="#000" fill-opacity=".12941" d="m542.44 766.26c0.79841-0.71235 0.52224-2.0644 0.67664-3.1155 0.14061-0.95716 0.56564-1.9858 0.22555-2.8929-0.11066-0.29516-0.38195-0.54716-0.67664-0.6676-0.83351-0.34063-1.9559-0.49375-2.7066 0-0.81322 0.53491-0.96805 1.719-1.1277 2.6704-0.18465 1.1002-0.34062 2.3729 0.22555 3.338 0.27158 0.46295 0.82651 0.76367 1.3533 0.89013 0.66151 0.15881 1.525 0.228 2.0299-0.22253z"/>
      <path id="path7749" stroke-width=".60115px" stroke="#000" fill-opacity=".12941" d="m544.02 771.83c0.0505 0.47234-0.74284 0.66447-0.90219 1.1127-0.27374 0.76995 0.10105 1.638 0 2.4479-0.0757 0.6071-0.45109 0.89013-0.45109 1.7803 0 0.89013 0.14184 1.7457-0.45109 2.2253-0.58142 0.47028-1.5036 0-2.2555 0-0.52628 0-1.5788 1.1127-1.5788 0s-0.0348-1.9292 0-2.8929c0.0376-1.0405-0.0233-2.1037 0.22555-3.1155 0.27009-1.098 0.49395-2.3687 1.3533-3.1155 0.41073-0.35694 1.0428-0.55432 1.5788-0.44507 1.0464 0.21329 2.3688 0.95436 2.481 2.0028z"/>
      <path id="path7755" stroke-width=".60115px" stroke="#000" fill-opacity=".12941" d="m567.47 785.63c0.98453 1.0238-0.0472 2.8278-0.22555 4.2281-0.0956 0.75057 0.10304 1.7025-0.45109 2.2253-0.71471 0.67428-1.9433 0.45581-2.9321 0.44507-1.2978-0.0141-2.5823-0.3301-3.8343-0.6676-1.2393-0.33409-2.67-0.46983-3.6087-1.3352-0.66378-0.61191-0.88662-1.5837-1.1277-2.4479-0.1807-0.64761-0.51311-1.394-0.22555-2.0028 0.229-0.48485 0.67664-0.89014 1.3533-0.89014 0.67664 0-1.1277-0.44506 2.7066 0 3.8343 0.44507 2.851 0.37079 4.2854 0.44507 1.3514 0.07 3.1284-0.96862 4.0598 0z"/>
      <path id="path7757" stroke-width=".60115px" stroke="#000" fill-opacity=".12941" d="m622.28 777.39c-0.0326 1.5217-1.7428 2.7314-3.1577 3.338-1.1722 0.50257-2.5562 0-3.8343 0-1.2029 0-2.7066 1.1127-3.6088 0-0.90218-1.1127-2.3179-1.2687-2.0299-2.2253 0.33228-1.1039 2.2479-0.62308 3.3832-0.89014 1.42-0.33402 3.1576-0.44506 4.2854-0.89013 1.1277-0.44507 2.4274-1.2617 3.6088-0.89013 0.6604 0.20771 1.3679 0.874 1.3533 1.5577z"/>
      <path id="path7763" stroke-width=".60115px" stroke="#000" fill-opacity=".12941" d="m569.73 680.14c-0.71147 1.1358-0.36124 2.7188 0 4.0056 0.11701 0.41683 0.23999 1.0741 0.67663 1.1127 0.79602 0.0702 1.2336-1.0691 1.5788-1.7803 0.56072-1.1548 0.72226-2.5033 0.67664-3.7831-0.0109-0.30566 0.0561-0.76233-0.22555-0.89013-0.91639-0.41585-2.1763 0.48863-2.7066 1.3352z"/>
      <path id="path7765" stroke-width=".60115px" stroke="#000" fill-opacity=".12941" d="m551.69 692.16c-0.3074 0.32573 0 0.89013 0 1.3352 0 0.51924-0.28971 1.1242 0 1.5577 0.31519 0.47162 1.0212 0.79564 1.5788 0.6676 0.6751-0.155 1.0807-0.92894 1.3533-1.5577 0.29711-0.68542 0.75219-1.6908 0.22555-2.2253-0.73551-0.74657-2.4386-0.53944-3.1577 0.22253z"/>
      <path id="path7769" stroke-width=".60115px" stroke="#000" fill-opacity=".12941" d="m546.72 693.27c-0.41202 0.88693-0.23232 2.1878 0.45109 2.8929 0.26494 0.27337 0.76083 0.33214 1.1277 0.22254 0.50881-0.152 0.92429-0.62808 1.1277-1.1127 0.25894-0.61679 0.22398-1.3728 0-2.0028-0.15934-0.4482-0.42762-1.0329-0.90218-1.1127-0.6992-0.11752-1.5088 0.47651-1.8044 1.1127z"/>
      <path id="path3019-4" d="m593.97 66.453-11.515-6.6597-12.014 5.7106 2.7753-13.01-9.1437-9.6617 13.231-1.3807 6.3632-11.682 5.4016 12.156 13.076 2.4419-9.8922 8.8938z" fill-opacity=".32463" transform="matrix(.28309 0 0 .27425 410.49 594.53)" stroke="#000" stroke-width="3.6676"/>
      <path id="path3019-1" d="m593.97 66.453-11.515-6.6597-12.014 5.7106 2.7753-13.01-9.1437-9.6617 13.231-1.3807 6.3632-11.682 5.4016 12.156 13.076 2.4419-9.8922 8.8938z" fill-opacity=".31373" transform="matrix(.28309 0 0 .27425 425.01 604.6)" stroke="#000" stroke-width="3.6676"/>
      <path id="path3019-56" d="m593.97 66.453-11.515-6.6597-12.014 5.7106 2.7753-13.01-9.1437-9.6617 13.231-1.3807 6.3632-11.682 5.4016 12.156 13.076 2.4419-9.8922 8.8938z" fill-opacity=".31373" transform="matrix(.28309 0 0 .27425 439.04 620.33)" stroke="#000" stroke-width="3.6676"/>
      <path id="path3019-56-2" d="m593.97 66.453-11.515-6.6597-12.014 5.7106 2.7753-13.01-9.1437-9.6617 13.231-1.3807 6.3632-11.682 5.4016 12.156 13.076 2.4419-9.8922 8.8938z" fill-opacity=".31373" transform="matrix(.28309 0 0 .27425 452.02 638.91)" stroke="#000" stroke-width="3.6676"/>
      <path id="path7994-4" stroke-width=".60115px" stroke="#000" fill-opacity=".31373" d="m535.8 725.07-0.0274-4.6666 0.0628-3.395c0.0104-0.56439-25.234-0.27817-25.234-0.27817s-0.86381 0.74242-0.95691 1.2588c-0.0972 0.53915 0.0811 1.1912 0.47846 1.5736 0.43397 0.41752 1.7543 0.47207 1.7543 0.47207l2.7113-0.15736s-0.62302 20.561-4.1466 30.055c-0.23834 0.64218-0.63151 1.2422-1.1164 1.7309-0.40226 0.40542-0.94105 0.65426-1.4354 0.94412-0.98122 0.57538-3.2657 0.4716-3.0302 1.5736 0.31884 1.4919 3.0816 0.24047 4.6251 0.3147 1.8592 0.0894 5.582 0.15736 5.582 0.15736h5.4225l6.2199 0.31471 4.3061-0.31471 2.8707-1.8883s0.55655-1.7765 0.79743-2.675c0.2374-0.88557 0.74566-1.7652 0.63795-2.675-0.069-0.58247-0.29183-1.2652-0.79743-1.5736-0.27134-0.16545-0.70643-0.19484-0.95692 0-1.0733 0.8349-0.18472 2.8212-0.95691 3.9339-0.4749 0.68429-2.0733 1.4162-2.0733 1.4162l-2.0733 0.94413-4.4656 0.62942h-6.2199l-1.2759-0.62942-1.2759-1.5736 0.63794-3.6192 1.7544-10.071 1.5948-0.62942h7.6553l0.63794 0.62942v4.2486l1.1164 1.1015 1.1164-1.1015-0.31898-5.9795 2.0733-4.4059-0.79743-1.4162h-0.63794l-1.4354 2.3603-1.1164 1.4162-1.4354 0.62942-4.1466 0.47206h-2.3923l-1.1164-0.31471 2.3923-14.162 4.1466-0.62942h4.6251l2.8707 0.15735 0.79743 1.8883 0.43009 4.1024c0.70723 0.60812 1.4144 0.2409 2.1217-0.16854z"/>
      <path id="path7996" stroke-width=".60115px" stroke="#000" fill-opacity=".31373" d="m544.24 717.47 5.6387 0.1669 4.7929-0.0556h2.5374l0.33832 0.6676-0.16916 0.6676s-0.4511 0.0556-0.73303 0.0556h-1.0713l-1.748 0.3338-1.015 0.6676-0.16916 0.38943-0.33832 2.0028-3.1576 20.918-0.22555 3.0042 0.11278 2.5035 0.90218 1.8359 3.0449 1.8915 4.3418 0.3338 3.5524-0.83451 2.1427-1.8359 1.8044-2.2253 1.3533-3.4493 1.0714-5.7859 1.2969-7.9556 0.73303-3.8943c0.0376-1.8944 0.0188-1.9968 0.0564-3.0598l0.11278-1.9472-0.0564-1.2239-0.11277-1.057-0.78942-0.3338h-1.6352l-0.90218-0.27816-0.16916-0.77887 0.0564-0.61197 0.8458-0.11126 3.4396 0.0556 4.0034 0.0556 1.9735 0.0556 0.0564 0.94577-0.22555 0.55633c-0.62025-0.0615-1.2405-0.031-1.8608 0.0556-1.1747 0.29672-1.1848 1.5127-1.6916 2.3366l-1.6352 7.0654-3.0449 16.801-2.5374 6.0084c-1.6738 1.924-3.5524 2.8373-5.5259 3.2824-2.2555 0.55968-4.5109 0.82868-6.7664 0.50071-2.3874-0.24975-4.2987-1.2043-6.0898-2.3366-1.2253-1.0636-2.098-2.7068-2.8757-4.5063 0.13011-4.2719 0.3797-8.5045 0.95857-12.629l2.1991-14.298c0.33011-1.3842 0.10211-2.1391-0.62025-2.3366l-2.8757-0.1669-0.0564-0.77886z"/>
      <path id="path9170" stroke-width=".60115px" stroke="#000" fill-opacity=".31373" d="m582.11 717.4c-0.56641 0.40245-0.92074 0.91331-0.6414 1.733l3.2662 0.94438-4.4997 30.755c-0.0388 0.26431 0.0429 0.58385-0.11841 0.79833-0.1485 0.19751-0.27581 0.11939-0.68087 0.31155-0.84062 0.39878-2.2485 1.1-2.9899 1.6746-0.24587 0.19056 0.17646 0.94465 0.48351 1.0028 5.5976 1.06 12.764 0.0432 13.006 0.2726l0.22696-1.2949-4.1444-0.86649c-0.53194-0.11102-1.0897-0.92943-0.95717-1.4993 1.1903-5.1176 2.1764-15.178 3.2662-15.334l1.8354 0.77887c0.98796 0.52782 1.213 0.90858 1.4308 0.86649 0 0 3.4475 13.005 8.6145 16.522 1.9596 1.3336 4.8338 1.5235 7.0948 0.7886 0.48233-0.15678 1.2126-0.52875 1.1249-1.0223-0.10066-0.5664-1.0818-0.44719-1.6183-0.67177l-3.651-1.5285-7.5685-15.266c10.443-5.2373 10.816-13.968 2.7827-18.333l-16.27-0.64zm7.8251 37.493-0.01 0.039c0.0227-0.0177 0.0217-0.0277 0.01-0.039zm3.0787-35.526c0.63378 0.01 1.2784 0.0735 1.6972 0.0876 1.15 0.0387 2.333 0.0367 3.2662 0.70098 1.0705 0.76196 1.5875 1.9531 1.8354 3.2323 0.25505 1.316 0.01 2.6936-0.23682 4.0112-0.30397 1.6231-0.55437 3.3738-1.5196 4.7219-0.78833 1.101-1.9969 1.9352-3.2662 2.434-1.1181 0.43936-2.3904 0.46953-3.5918 0.39917-0.81741-0.0479-2.463 0.24957-2.388-0.55494 0.54224-5.8171 2.2309-12.839 2.1512-14.244-0.0391-0.68813 0.99618-0.80511 2.0525-0.7886z"/>
      <path id="path3019" d="m593.97 66.453-11.515-6.6597-12.014 5.7106 2.7753-13.01-9.1437-9.6617 13.231-1.3807 6.3632-11.682 5.4016 12.156 13.076 2.4419-9.8922 8.8938z" fill-opacity=".31373" transform="matrix(.28309 0 0 .27425 383.45 575.66)" stroke="#000" stroke-width="3.6676"/>
      <path id="path3019-5" d="m593.97 66.453-11.515-6.6597-12.014 5.7106 2.7753-13.01-9.1437-9.6617 13.231-1.3807 6.3632-11.682 5.4016 12.156 13.076 2.4419-9.8922 8.8938z" fill-opacity=".31373" transform="matrix(.28309 0 0 .27425 397.1 584.77)" stroke="#000" stroke-width="3.6676"/>
      <path id="path3019-56-7" d="m593.97 66.453-11.515-6.6597-12.014 5.7106 2.7753-13.01-9.1437-9.6617 13.231-1.3807 6.3632-11.682 5.4016 12.156 13.076 2.4419-9.8922 8.8938z" fill-opacity=".31373" transform="matrix(.28309 0 0 .27425 451.34 777.33)" stroke="#000" stroke-width="3.6676"/>
      <path id="path3019-56-23" d="m593.97 66.453-11.515-6.6597-12.014 5.7106 2.7753-13.01-9.1437-9.6617 13.231-1.3807 6.3632-11.682 5.4016 12.156 13.076 2.4419-9.8922 8.8938z" fill-opacity=".31373" transform="matrix(.28309 0 0 .27425 437.58 794.02)" stroke="#000" stroke-width="3.6676"/>
      <path id="path3019-56-70" d="m593.97 66.453-11.515-6.6597-12.014 5.7106 2.7753-13.01-9.1437-9.6617 13.231-1.3807 6.3632-11.682 5.4016 12.156 13.076 2.4419-9.8922 8.8938z" fill-opacity=".31373" transform="matrix(.28309 0 0 .27425 424.95 809.15)" stroke="#000" stroke-width="3.6676"/>
      <path id="path3019-56-8" d="m593.97 66.453-11.515-6.6597-12.014 5.7106 2.7753-13.01-9.1437-9.6617 13.231-1.3807 6.3632-11.682 5.4016 12.156 13.076 2.4419-9.8922 8.8938z" fill-opacity=".31373" transform="matrix(.28309 0 0 .27425 410.74 820.94)" stroke="#000" stroke-width="3.6676"/>
      <path id="path3019-56-76" d="m593.97 66.453-11.515-6.6597-12.014 5.7106 2.7753-13.01-9.1437-9.6617 13.231-1.3807 6.3632-11.682 5.4016 12.156 13.076 2.4419-9.8922 8.8938z" fill-opacity=".31373" transform="matrix(.28309 0 0 .27425 397.21 831.62)" stroke="#000" stroke-width="3.6676"/>
      <path id="path3019-56-73" d="m593.97 66.453-11.515-6.6597-12.014 5.7106 2.7753-13.01-9.1437-9.6617 13.231-1.3807 6.3632-11.682 5.4016 12.156 13.076 2.4419-9.8922 8.8938z" fill-opacity=".31373" transform="matrix(.28309 0 0 .27425 383.45 839.64)" stroke="#000" stroke-width="3.6676"/>
      <rect id="rect3882" fill-opacity=".31373" rx=".7992" height="9.2839" width="1.9138" stroke="#000" y="569.49" x="547.98" stroke-width="1.0219"/>
      <rect id="rect3882-6" fill-opacity=".31373" rx=".7992" height="9.2839" width="1.9138" stroke="#000" y="577.12" x="561.21" stroke-width="1.0219"/>
      <rect id="rect3882-5" fill-opacity=".31373" rx=".7992" height="9.2839" width="1.9138" stroke="#000" y="584.67" x="574.77" stroke-width="1.0219"/>
      <rect id="rect3882-63" fill-opacity=".31373" rx=".7992" height="9.2839" width="1.9138" stroke="#000" y="595.69" x="588.96" stroke-width="1.0219"/>
      <rect id="rect3882-0" fill-opacity=".31373" rx=".7992" height="12.812" width="1.9138" stroke="#000" y="608.59" x="602.36" stroke-width="1.0219"/>
      <rect id="rect3882-2" fill-opacity=".31373" rx=".7992" height="15.513" width="1.9138" stroke="#000" y="624.48" x="616.4" stroke-width="1.0219"/>
      <rect id="rect3882-67" fill-opacity=".31373" rx=".7992" height="48.565" width="1.9138" stroke="#000" y="598.99" x="547.18" stroke-width="1.0219"/>
      <rect id="rect3882-07" fill-opacity=".31373" rx=".7992" height="12.184" width="1.9138" stroke="#000" y="606.07" x="561.53" stroke-width="1.0219"/>
      <rect id="rect3882-3" fill-opacity=".31373" rx=".7992" height="9.2839" width="1.9138" stroke="#000" y="861.46" x="547.34" stroke-width="1.0219"/>
      <rect id="rect3882-03" fill-opacity=".31373" rx=".7992" height="9.2839" width="1.9138" stroke="#000" y="854.22" x="561.85" stroke-width="1.0219"/>
      <rect id="rect3882-673" fill-opacity=".31373" rx=".7992" height="12.685" width="1.9138" stroke="#000" y="843.2" x="574.77" stroke-width="1.0219"/>
      <rect id="rect3882-1" fill-opacity=".31373" rx=".7992" height="13.807" width="1.9138" stroke="#000" y="831.09" x="589.12" stroke-width="1.0219"/>
      <rect id="rect3882-53" fill-opacity=".31373" rx=".7992" height="14.256" width="1.9138" stroke="#000" y="816.45" x="601.72" stroke-width="1.0219"/>
      <rect id="rect3882-38" fill-opacity=".31373" rx=".7992" height="15.536" width="1.9138" stroke="#000" y="799.3" x="615.76" stroke-width="1.0219"/>
      <rect id="rect3882-28" fill-opacity=".31373" rx=".7992" ry=".62309" height="48.742" width="1.9138" stroke="#000" y="791.12" x="547.66" stroke-width="1.0219"/>
      <rect id="rect3882-64" fill-opacity=".31373" rx=".7992" height="28.322" width="1.9138" stroke="#000" y="804.97" x="561.69" stroke-width="1.0219"/>
      <rect id="rect3882-9" fill-opacity=".31373" rx=".7992" height="32.099" width="1.9138" stroke="#000" y="791.91" x="574.13" stroke-width="1.0219"/>
      <rect id="rect3882-57" fill-opacity=".31373" rx=".7992" height="20.003" width="1.9138" stroke="#000" y="791.91" x="589.12" stroke-width="1.0219"/>
      <path id="path3914" stroke-width="1px" stroke="#000" fill-opacity=".31373" d="m335.3 777.07c31.459-22.61 57.117-47.408 82.518-72.987 7.5836-7.6368 18.993-18.933 21.472-42.511 1.2107-11.516-3.4057-27.733-20.26-29.041-23.81-1.8473-35.503 17.228-43.355 22.439-2.923 1.1768-7.0099 0.39556-7.5179-4.329-2.6128 1.3064 17.397-27.889 32.143-35.714 11.452-6.0774 29.411-7.4949 38.571-5 16.373 4.4593 30.931 16.633 30 41.429-1.0721 28.562-12.609 39.578-25.714 55-17.428 20.508-63.571 55.714-63.571 55.714h55s5.4378 0.43976 13.571-5c4.3944-2.939 9.2857-12.857 9.2857-12.857l7.1429 2.8571-16.429 40-108.57 0.71428z"/>
    </g>
  </g>
  <metadata>
    <rdf:RDF>
      <cc:Work>
        <dc:format>image/svg+xml</dc:format>
        <dc:type rdf:resource="http://purl.org/dc/dcmitype/StillImage"/>
        <cc:license rdf:resource="http://creativecommons.org/licenses/publicdomain/"/>
        <dc:publisher>
          <cc:Agent rdf:about="http://openclipart.org/">
            <dc:title>Openclipart</dc:title>
          </cc:Agent>
        </dc:publisher>
        <dc:title>2 euro coin</dc:title>
        <dc:date>2013-10-07T18:24:06</dc:date>
        <dc:description>coin of 2 euro&#xD;\n&#xD;\nused Clipart:&#xD;\nhttp://openclipart.org/detail/148465/1-euro-by-lolonene</dc:description>
        <dc:source>http://openclipart.org/detail/184667/2-euro-coin-by-frankes-184667</dc:source>
        <dc:creator>
          <cc:Agent>
            <dc:title>frankes</dc:title>
          </cc:Agent>
        </dc:creator>
        <dc:subject>
          <rdf:Bag>
            <rdf:li>coin</rdf:li>
            <rdf:li>euro</rdf:li>
            <rdf:li>money</rdf:li>
            <rdf:li>two</rdf:li>
          </rdf:Bag>
        </dc:subject>
      </cc:Work>
      <cc:License rdf:about="http://creativecommons.org/licenses/publicdomain/">
        <cc:permits rdf:resource="http://creativecommons.org/ns#Reproduction"/>
        <cc:permits rdf:resource="http://creativecommons.org/ns#Distribution"/>
        <cc:permits rdf:resource="http://creativecommons.org/ns#DerivativeWorks"/>
      </cc:License>
    </rdf:RDF>
  </metadata>
</svg>
