<?xml version="1.0"?>
<svg xmlns:rdf="http://www.w3.org/1999/02/22-rdf-syntax-ns#" xmlns="http://www.w3.org/2000/svg" xmlns:cc="http://creativecommons.org/ns#" xmlns:xlink="http://www.w3.org/1999/xlink" xmlns:dc="http://purl.org/dc/elements/1.1/" xmlns:svg="http://www.w3.org/2000/svg" id="svg5148" viewBox="0 0 398.1 391.77" version="1.1">
  <title id="title7425">50 euro cent</title>
  <defs id="defs5150">
    <linearGradient id="linearGradient7419" x1="215.51" gradientUnits="userSpaceOnUse" y1="1047.3" gradientTransform="matrix(.95277 0 0 .95011 -54.702 -451.64)" x2="622.89" y2="1047.3">
      <stop id="stop7350" stop-color="#eabd61" offset="0"/>
      <stop id="stop7352" stop-color="#eecd73" stop-opacity=".77778" offset="1"/>
    </linearGradient>
    <linearGradient id="linearGradient7421" y2="129.08" gradientUnits="userSpaceOnUse" y1="129.08" x2="1012.4" x1="-224.48">
      <stop id="stop3974" stop-color="#d0c27b" offset="0"/>
      <stop id="stop3976" stop-color="#d0c27b" stop-opacity=".77778" offset="1"/>
    </linearGradient>
    <linearGradient id="linearGradient7423" x1="-224.48" gradientUnits="userSpaceOnUse" y1="129.08" gradientTransform="matrix(.12265 0 0 .18714 293.96 605.46)" x2="1012.4" y2="129.08">
      <stop id="stop8780-1" stop-color="#e6e6e6" offset="0"/>
      <stop id="stop8782-6" stop-color="#ccc" stop-opacity=".7459" offset="1"/>
    </linearGradient>
  </defs>
  <g id="layer1" transform="translate(-145.66 -347.57)">
    <g id="g7354">
      <path id="path7026" stroke="#000" stroke-width=".9" fill="url(#linearGradient7419)" d="m365.65 356.52s-3.3658-3.205-7.701-3.4816c-4.3351-0.27714-6.8905 2.3664-6.8905 2.3664s-2.9447 3.7868-7.2883 3.8454c-4.3436 0.0591-7.4371-3.7001-7.4371-3.7001-4.9381-4.1544-8.5718 0.80063-8.5718 0.80063s-1.0038 2.9569-5.3201 3.4452c-4.3162 0.48889-6.8394-2.2875-6.8394-2.2875s-4.0365-2.1475-8.3056-1.3462c-4.2692 0.80063-6.0796 4.042-6.0796 4.042s-2.6627 3.4333-6.859 4.5535c-4.1961 1.1208-7.2591-0.70265-7.2591-0.70265s-4.301-1.5047-8.4054-0.086c-4.1046 1.4183-5.3993 4.9371-5.3993 4.9371s-2.1003 3.6913-6.0438 5.5079c-3.9434 1.8171-7.3198 0.44513-7.3198 0.44513s-4.5548-0.87453-8.3597 1.2157c-3.8052 2.0897-4.5421 5.6767-4.5421 5.6767s-1.5031 4.0242-5.144 6.3871c-3.6405 2.3634-7.1586 1.5211-7.1586 1.5211s-4.5832-0.15016-8.0513 2.4585c-3.4684 2.6082-3.654 6.305-3.654 6.305s-0.86013 4.2579-4.1256 7.1148c-3.265 2.8573-6.8148 2.5812-6.8148 2.5812s-4.6338 0.52647-7.6164 3.6759c-2.983 3.149-2.6005 6.7756-2.6005 6.7756s-0.22684 4.2664-2.9706 7.6248c-2.7433 3.3588-6.3625 3.6186-6.3625 3.6186s-4.4354 1.2383-6.9347 4.7814c-2.4998 3.5428-1.5594 7.105-1.5594 7.105s0.47289 4.3029-1.754 8.0223c-2.2264 3.7197-5.7159 4.5299-5.7159 4.5299s-4.1424 1.9016-6.1005 5.7685c-1.9586 3.8666-0.4333 7.2924-0.4333 7.2924s1.0726 4.1076-0.48774 8.1504c-1.5598 4.0429-4.9368 5.4053-4.9368 5.4053s-3.8782 2.5463-5.1343 6.6932c-1.2566 4.1467 0.73458 7.2268 0.73458 7.2268s1.7465 3.9158 0.8146 8.1469c-0.93132 4.2312-4.0302 6.0922-4.0302 6.0922s-3.3874 3.1114-4.0012 7.3999c-0.61428 4.2883 1.8488 7.0369 1.8488 7.0369s2.367 3.6084 2.0926 7.9317c-0.2739 4.3232-3.0317 6.6369-3.0317 6.6369s-2.8432 3.5948-2.7909 7.9265c0.0517 4.3316 2.9165 6.6712 2.9165 6.6712s2.9063 3.2038 3.2986 7.5179c0.39293 4.3142-1.9703 7.0186-1.9703 7.0186s-2.237 3.9814-1.5203 8.2539c0.71614 4.2726 3.9313 6.143 3.9313 6.143s3.3914 2.7193 4.4358 6.9242c1.045 4.2046-0.8321 7.2219-0.8321 7.2219s-1.5792 4.2636-0.22395 8.3793c1.3547 4.1158 4.8773 5.459 4.8773 5.459s3.6815 2.1441 5.4445 6.1032c1.7636 3.9588 0.34598 7.3016 0.34598 7.3016s-0.92581 4.5241 1.1191 8.346c2.0444 3.8221 5.64 4.6002 5.64 4.6002s4.0318 1.5413 6.354 5.2022c2.3227 3.6607 1.4462 7.1489 1.4462 7.1489s-0.17911 4.5567 2.4022 8.0409c2.5808 3.4845 6.3049 3.6917 6.3049 3.6917s4.2709 0.89576 7.0995 4.1835c2.829 3.2874 2.5329 6.8058 2.5329 6.8058s0.49668 4.607 3.6222 7.6155c3.1251 3.0089 6.7747 2.6576 6.7747 2.6576s4.2932 0.25349 7.6303 3.0269c3.3374 2.7728 3.5654 6.3753 3.5654 6.3753s1.2052 4.4163 4.7285 6.9504c3.5229 2.5344 7.1146 1.6271 7.1146 1.6271s4.3298-0.43344 8.0318 1.8331c3.7023 2.266 4.4819 5.738 4.4819 5.738s1.8573 4.1454 5.7086 6.1493c3.851 2.0045 7.3116 0.51866 7.3116 0.51866s4.1411-1.0218 8.1712 0.59497c4.0303 1.6163 5.3471 5.0001 5.3471 5.0001s2.4914 3.8947 6.6274 5.2195c4.1357 1.3252 7.2584-0.60521 7.2584-0.60521s3.9635-1.6689 8.1865-0.65368c4.2232 1.0146 6.0262 4.1418 6.0262 4.1418s3.049 3.4421 7.3358 4.1433c4.2866 0.70165 7.0927-1.6907 7.0927-1.6907s3.6721-2.2712 7.9999-1.8972c4.3278 0.3735 6.5803 3.1841 6.5803 3.1841s3.5299 2.9339 7.8735 2.9903c4.3436 0.057 6.7609-2.7266 6.7609-2.7266s3.2928-2.7872 7.6282-3.0589c4.3354-0.2723 6.9822 2.1763 6.9822 2.1763s3.9283 2.3811 8.2321 1.7932c4.3039-0.58737 6.279-3.7017 6.279-3.7017s2.8355-3.2595 7.0815-4.1744c4.2459-0.91552 7.2272 1.0988 7.2272 1.0988s4.23 1.7377 8.3985 0.51867c4.1686-1.2184 5.6499-4.6172 5.6499-4.6172s2.3114-3.6791 6.3772-5.2045c4.0656-1.5259 7.2919-0.0142 7.2919-0.0142s4.4255 1.0752 8.3718-0.73567c3.9465-1.8102 4.8866-5.4479 4.8866-5.4479s1.7264-3.8956 5.4786-6.0784c3.7519-2.1834 7.2393-1.146 7.2393-1.146s4.6075 0.42005 8.1943-2.0236c3.5871-2.4433 3.97-6.0933 3.97-6.0933s1.0963-4.1689 4.4947-6.8672c3.398-2.6987 6.9714-2.2058 6.9714-2.2058s4.5587-0.31002 7.7593-3.2388c3.201-2.9285 3.0122-6.6441 3.0122-6.6441s0.4396-4.33 3.4175-7.4838c2.9775-3.1543 6.5157-3.236 6.5157-3.236s4.5382-0.98251 7.2079-4.3998c2.6701-3.4169 1.9323-7.0002 1.9323-7.0002s-0.20614-4.2829 2.2013-7.8887c2.4069-3.6062 5.9714-4.2202 5.9714-4.2202s4.2712-1.6747 6.4148-5.4424c2.1441-3.7675 0.84459-7.2322 0.84459-7.2322s-0.90661-4.2448 0.94767-8.1622c1.8537-3.9177 5.222-5.0731 5.222-5.0731s3.9246-2.3052 5.4883-6.3467c1.5642-4.0413-0.3146-7.3065-0.3146-7.3065s-1.4909-3.9835-0.34387-8.1618c1.1464-4.1782 4.3632-5.8726 4.3632-5.8726s3.5951-2.9251 4.4251-7.1772c0.83057-4.252-1.4653-7.1164-1.4653-7.1164s-2.1345-3.7181-1.639-8.0217c0.49497-4.3036 3.3915-6.4691 3.3915-6.4691s3.0662-3.4383 3.2392-7.7667c0.17354-4.3284-2.5487-6.8125-2.5487-6.8125s-2.6974-3.347-2.8702-7.6756c-0.17335-4.3284 2.3466-6.9104 2.3466-6.9104s2.4845-3.8648 1.989-8.1684c-0.49495-4.3036-3.573-6.3408-3.573-6.3408s-3.2047-2.8949-4.0347-7.147c-0.83055-4.252 1.2478-7.1821 1.2478-7.1821s1.8208-4.1865 0.67385-8.3646c-1.1465-4.1783-4.5382-5.7133-4.5382-5.7133s-3.6535-2.3644-5.1158-6.4435c-1.4628-4.0788 0.0908-7.2646 0.0908-7.2646s1.2066-4.5005-0.64961-8.417c-1.8558-3.9167-5.3817-4.8814-5.3817-4.8814s-3.897-1.7621-6.0406-5.5298c-2.1441-3.7675-1.0719-7.2266-1.0719-7.2266s0.45651-4.5766-1.9509-8.1825c-2.4069-3.6062-6.0726-4.0246-6.0726-4.0246s-4.1864-1.1267-6.8536-4.546c-2.6676-3.4189-2.1527-6.9599-2.1527-6.9599s-0.2711-4.5404-3.1727-7.7642c-2.9011-3.2242-6.6488-3.0582-6.6488-3.0582s-4.2319-0.50329-7.4325-3.4322c-3.201-2.9285-3.2349-6.5615-3.2349-6.5615s-0.95217-4.5194-4.3517-7.2162c-3.3991-2.6973-7.0078-1.9876-7.0078-1.9876s-4.3148 0.1809-7.9028-2.2612c-3.5882-2.4417-4.1671-5.9964-4.1671-5.9964s-1.6353-4.2612-5.3853-6.448c-3.7496-2.1872-7.2492-0.92155-7.2492-0.92155s-4.2742 0.85248-8.1755-1.0529c-3.9015-1.9048-5.0169-5.269-5.0169-5.269s-2.2765-4.0626-6.3423-5.588c-4.0656-1.5259-7.2706 0.22537-7.2706 0.22537s-4.0233 1.4261-8.1924 0.20923c-4.1692-1.2164-5.8118-4.4526-5.8118-4.4526s-2.8632-3.6325-7.1096-4.5453c-4.2463-0.91339-7.1637 1.3148-7.1637 1.3148s-3.7739 2.0457-8.0778 1.4578c-4.3039-0.5873-6.4041-3.5897-6.4041-3.5897"/>
      <path id="path7998" d="m1012.2 129.08c0 205.3-276.78 371.74-618.21 371.74s-618.21-166.43-618.21-371.74c0-205.3 276.78-371.74 618.21-371.74s618.21 166.43 618.21 371.74z" transform="matrix(.29306 0 0 .48102 229.51 481.96)" stroke="#000" stroke-width="2.3971" fill="url(#linearGradient7421)"/>
      <path id="path4129" stroke-width=".9" stroke="#000" fill-opacity=".12941" d="m296.72 470.55-6.1038 0.29246 0.64779-2.9693-2.1484-2.2007 3.116-0.31554 0.12299-0.22654c-0.0518-0.0672-0.10375-0.13522-0.15579-0.20228-1.6144-2.0804-3.2145-4.2291-5.2479-5.9143-1.4441-0.8456 6.4872 2.0819 10.167 2.7524z"/>
      <path id="path7759" stroke-width=".9" stroke="#000" fill-opacity=".12941" d="m200.85 538.17c2.6983 0.0714 5.2548-1.2224 7.8941-1.7803 1.1246-0.23771 2.2639-0.40691 3.3832-0.6676 0.83427-0.19432 1.6238-0.65861 2.481-0.6676 1.2399-0.013 2.4582 0.43402 3.6088 0.89013 0.56243 0.22297 1.0546 1.1903 1.5788 0.89013 0.58523-0.33508 0.0281-1.3358 0-2.0028-0.0376-0.89244-0.77625-1.9614-0.22555-2.6704 0.5113-0.65826 1.6926-0.1576 2.481-0.44507 0.97971-0.3572 2.3234-0.59908 2.7066-1.5577 0.28796-0.72044 0.67664-2.2253-0.67664-2.2253s-3.2824 0.17982-4.7365-0.44506c-0.82999-0.3567-1.7672-0.9255-2.0299-1.7803-0.51869-1.6873 1.7735-3.4045 1.3533-5.1183-0.4507-1.8381-3.091-2.485-3.8343-4.2281-0.43829-1.0279 0.09-2.2672-0.22554-3.338-0.26301-0.89248-0.87272-1.6484-1.3533-2.4479-0.63833-1.0618-1.9744-1.8821-2.0299-3.1155-0.0791-1.7568 1.5788-4.4507 2.481-4.6732 0.90219-0.22254 2.212-0.90529 2.0299-1.7803-0.28681-1.3787-2.6337-1.3046-4.0598-1.3352-0.54721-0.0117-1.1004 0.70732-1.5788 0.44507-0.47845-0.26226-0.57684-1.0322-0.45109-1.5577 0.28119-1.1752 2.6771-1.4785 2.481-2.6704-0.12399-0.75385-1.2574-1.0644-2.0299-1.1127-0.80811-0.0505-1.5986 0.423-2.2555 0.89013-1.0386 0.73861-1.6948 1.896-2.481 2.8929-0.39717 0.5036-1.1518 0.92007-1.1277 1.5577 0.0218 0.57894 1.1543 0.75645 1.1277 1.3352-0.0433 0.94316-1.4491 1.2525-2.0299 2.0028-0.36792 0.47526-1.108 0.99522-0.90218 1.5577 0.21811 0.59612 1.278 0.30428 1.8044 0.6676 0.56794 0.39203 1.22 0.8866 1.3533 1.5577 0.13711 0.69058-0.56239 1.3082-0.67664 2.0028-0.0602 0.36609-0.19763 0.79717 0 1.1127 0.26515 0.42329 1.183 0.19923 1.3533 0.66761 0.25005 0.68765-1.4568 1.5187-0.90219 2.0028 0.985 0.8598 2.1158-1.6564 3.3832-2.0028 0.36228-0.099 0.83451-0.23208 1.1277 0 0.54068 0.42792 0.37546 1.323 0.45109 2.0028 0.0738 0.66362 0 1.1127 0 2.0028 0 0.89014-0.11485 2.0832 0 3.1155 0.0756 0.6798 0.59224 1.3332 0.45109 2.0028-0.20822 0.98778-0.96278 1.8748-1.8044 2.4479-0.70549 0.48043-1.6653 0.40757-2.481 0.6676-0.61125 0.19485-1.5491 0.086-1.8044 0.6676-0.38834 0.88492 1.3174 1.7244 1.1277 2.6704-0.18571 0.92618-1.1458 1.6415-2.0299 2.0028-0.90297 0.36903-2.3606-0.78229-2.9321 0-0.27803 0.38059 0.0585 1.0705 0.45109 1.3352 1.243 0.83816 3.0138-0.37869 4.5109-0.22254 1.1607 0.12106 2.6721-0.023 3.3832 0.89013 0.36643 0.47058 0.0963 1.1945 0 1.7803-0.0762 0.46308-0.0868 1.0337-0.4511 1.3352-1.5721 1.3013-4.2411 0.0113-6.0898 0.89014-1.3897 0.66065-3.7444 1.6358-3.3832 3.1155 0.12814 0.52501 1.0317 0.43059 1.5788 0.44506z"/>
      <path id="path7761" stroke-width=".9" stroke="#000" fill-opacity=".12941" d="m187.95 526.85c-0.84414-1.2631-0.21177-3.411 0.90218-4.4507 1.1586-1.0814 3.2142-0.19842 4.7365-0.6676 0.64186-0.19783 1.6967-0.23524 1.8044-0.89014 0.0851-0.51774-0.65225-0.87809-1.1277-1.1127-0.95099-0.46915-2.5528 0.41769-3.1577-0.44507-0.7886-1.1249-0.17917-3.1498 0.90219-4.0056 0.70375-0.55698 1.8896-0.37755 2.7066 0 0.53176 0.24573 0.55848 1.1931 1.1277 1.3352 0.78501 0.19593 1.8015-0.22857 2.2555-0.89013 0.59009-0.85994-0.74426-2.3811 0-3.1155 0.69111-0.68187 1.9775-0.20687 2.9321 0 1.0514 0.22784 2.352 0.44059 2.9321 1.3352 0.60779 0.93723 0.49547 2.3385 0 3.338-0.37662 0.75976-1.6533 0.79797-2.0299 1.5577-0.56153 1.1328 0.0425 2.5228 0 3.7831-0.0376 1.1145 0.50528 2.4874-0.22555 3.338-0.849 0.9882-2.5461 0.63928-3.8343 0.89013-1.8674 0.36366-3.7358 0.93599-5.6387 0.89013-1.4593-0.0352-3.4818 0.31227-4.2854-0.89013z"/>
      <path id="path7745" stroke-width=".9" stroke="#000" fill-opacity=".12941" d="m218.28 582.57c-0.50401 0.0181-0.98324 0.32951-1.3533 0.6676-0.32165 0.29389-0.68063 0.68016-0.67664 1.1127 0.006 0.69976 0.60296 1.3095 1.1277 1.7803 0.87067 0.78111 2.0412 1.9249 3.1576 1.5577 0.79743-0.26226 0.80607-1.4591 1.1277-2.2253 0.18196-0.43343 0.64897-0.90862 0.45109-1.3352-0.57522-1.24-2.453-1.6075-3.8343-1.5577z"/>
      <path id="path7747" stroke-width=".9" stroke="#000" fill-opacity=".12941" d="m242.29 577.88c0.79841-0.71235 0.52224-2.0644 0.67664-3.1155 0.14061-0.95716 0.56564-1.9858 0.22555-2.8929-0.11066-0.29516-0.38195-0.54716-0.67664-0.6676-0.83351-0.34063-1.9559-0.49375-2.7066 0-0.81322 0.53491-0.96805 1.719-1.1277 2.6704-0.18465 1.1002-0.34062 2.3729 0.22555 3.338 0.27158 0.46295 0.82651 0.76367 1.3533 0.89013 0.66151 0.15881 1.525 0.228 2.0299-0.22253z"/>
      <path id="path7749" stroke-width=".9" stroke="#000" fill-opacity=".12941" d="m242.74 581.65c0.0505 0.47234-0.74284 0.66447-0.90219 1.1127-0.27374 0.76995 0.10105 1.638 0 2.4479-0.0757 0.6071-0.45109 0.89013-0.45109 1.7803 0 0.89013 0.14184 1.7457-0.45109 2.2253-0.58142 0.47028-1.5036 0-2.2555 0-0.52628 0-1.5788 1.1127-1.5788 0s-0.0348-1.9292 0-2.8929c0.0376-1.0405-0.0233-2.1037 0.22555-3.1155 0.27009-1.098 0.49395-2.3687 1.3533-3.1155 0.41073-0.35694 1.0428-0.55432 1.5788-0.44507 1.0464 0.21329 2.3688 0.95436 2.481 2.0028z"/>
      <path id="path7755" stroke-width=".9" stroke="#000" fill-opacity=".12941" d="m263.64 592.62c0.98453 1.0238-0.0472 2.8278-0.22555 4.2281-0.0956 0.75057 0.10304 1.7025-0.45109 2.2253-0.71471 0.67428-1.9433 0.45581-2.9321 0.44507-1.2978-0.0141-2.5823-0.3301-3.8343-0.6676-1.2393-0.33409-2.67-0.46983-3.6087-1.3352-0.66378-0.61191-0.88662-1.5837-1.1277-2.4479-0.1807-0.64761-0.51311-1.394-0.22555-2.0028 0.229-0.48485 0.67664-0.89014 1.3533-0.89014 0.67664 0-1.1277-0.44506 2.7066 0 3.8343 0.44507 2.851 0.37079 4.2854 0.44507 1.3514 0.07 3.1284-0.96862 4.0598 0z"/>
      <path id="path7757" stroke-width=".9" stroke="#000" fill-opacity=".12941" d="m297.76 599.23c-0.0326 1.5217-1.7428 2.7314-3.1577 3.338-1.1722 0.50257-2.5562 0-3.8343 0-1.2029 0-2.7066 1.1127-3.6088 0-0.90218-1.1127-2.3179-1.2687-2.0299-2.2253 0.33228-1.1039 2.2479-0.62308 3.3832-0.89014 1.42-0.33402 3.1576-0.44506 4.2854-0.89013 1.1277-0.44507 2.4274-1.2617 3.6088-0.89013 0.6604 0.20771 1.3679 0.874 1.3533 1.5577z"/>
      <path id="path7757-8" stroke-width=".9" stroke="#000" fill-opacity=".12941" d="m297.26 609.33c-0.0326 1.5217-1.7428 2.7314-3.1577 3.338-1.1722 0.50257-2.5562 0-3.8343 0-1.2029 0-2.7066 1.1127-3.6088 0-0.90218-1.1127-2.3179-1.2687-2.0299-2.2253 0.33228-1.1039 2.2479-0.62308 3.3832-0.89014 1.42-0.33402 3.1576-0.44506 4.2854-0.89013 1.1277-0.44507 2.4274-1.2617 3.6088-0.89013 0.6604 0.20771 1.3679 0.874 1.3533 1.5577z"/>
      <path id="path7745-1" stroke-width=".9" stroke="#000" fill-opacity=".12941" d="m257.17 601.77c-0.50401 0.0181-0.98324 0.32951-1.3533 0.6676-0.32165 0.29389-0.68063 0.68016-0.67664 1.1127 0.006 0.69976 0.60296 1.3095 1.1277 1.7803 0.87067 0.78111 2.0412 1.9249 3.1576 1.5577 0.79743-0.26226 0.80607-1.4591 1.1277-2.2253 0.18196-0.43343 0.64897-0.90862 0.45109-1.3352-0.57522-1.24-2.453-1.6075-3.8343-1.5577z"/>
      <path id="path7763" stroke-width=".9" stroke="#000" fill-opacity=".12941" d="m264.41 506.55c-0.71147 1.1358-0.36124 2.7188 0 4.0056 0.11701 0.41683 0.23999 1.0741 0.67663 1.1127 0.79602 0.0702 1.2336-1.0691 1.5788-1.7803 0.56072-1.1548 0.72226-2.5033 0.67664-3.7831-0.0109-0.30566 0.0561-0.76233-0.22555-0.89013-0.91639-0.41585-2.1763 0.48863-2.7066 1.3352z"/>
      <path id="path7769" stroke-width=".9" stroke="#000" fill-opacity=".12941" d="m245.65 516.97c-0.41202 0.88693-0.23232 2.1878 0.45109 2.8929 0.26494 0.27337 0.76083 0.33214 1.1277 0.22254 0.50881-0.152 0.92429-0.62808 1.1277-1.1127 0.25894-0.61679 0.22398-1.3728 0-2.0028-0.15934-0.4482-0.42762-1.0329-0.90218-1.1127-0.6992-0.11752-1.5088 0.47651-1.8044 1.1127z"/>
      <path id="path7769-0" stroke-width=".9" stroke="#000" fill-opacity=".12941" d="m250.19 516.97c-0.41202 0.88693-0.23232 2.1878 0.45109 2.8929 0.26494 0.27337 0.76083 0.33214 1.1277 0.22254 0.50881-0.152 0.92429-0.62808 1.1277-1.1127 0.25894-0.61679 0.22398-1.3728 0-2.0028-0.15934-0.4482-0.42762-1.0329-0.90218-1.1127-0.6992-0.11752-1.5088 0.47651-1.8044 1.1127z"/>
      <path id="path5532" stroke-width=".9" stroke="#000" fill-opacity=".12941" d="m185.36 605.37c-0.65067-2.1887-1.9636-4.3773 4.5457-6.566 5.759-0.33737 9.3811 0.51249 9.0914 3.5355-1.3367 2.5317-2.4116 3.7223-4.0406 4.5457-5.3734-0.50508-6.62-1.0102-9.5964-1.5152z"/>
      <path id="path5536" stroke-width=".9" stroke="#000" fill-opacity=".12941" d="m297.49 706.89c45.49 20.236 209.86 6.723 219.46-161.37 4.47-78.39-64.34-190.85-220.98-165.41l0.50507 70.711 0.21327 0.0623c0.15608-2.3034-17.431-4.3369-17.246-2.0349-0.36561-0.93273-1.7108-1.5004-1.681-2.5 0.0138-0.46204 0.65385-0.68622 0.8446-1.1084 0.25972-0.57487 0.76505-1.3594 0.36899-1.8528-0.25219-0.31417-0.66779-0.38757-1.1152-0.356l0.00002 0.00004c-0.44738 0.0316-0.92656 0.16812-1.3202 0.267-0.87167 0.21893-1.629 0.723-2.3698 1.2541l0.17218 0.0324-2.3288 2.0227 0.41 3.0098-2.7142-1.5211-1.2136 0.55826c-0.90437 0.68952-1.8049 1.3786-2.7306 2.0389-1.1449 0.81664-2.4381 1.4495-3.4686 2.403-2.5131 2.3254-4.5507 5.13-6.4697 7.9532-0.93428 1.3745-2.0162 2.7423-2.4354 4.3447-0.21108 0.80691 0.3896 1.7607 0 2.5-0.3512 0.66649-1.6924 0.56395-1.8696 1.2945-0.12323 0.50805 0.7462 0.92118 0.7462 1.3835 0 0.46233 0.37719 1.5719 0.37719 1.9418 0 0.36986-1.1706 0.14328-1.5006 0.55826-0.15465 0.1945-0.10946 0.48979-0.0902 0.73625 0.0349 0.44693 0.64333 0.93723 0.369 1.2945-0.4704 0.61267-1.6535-0.3687-2.337 0-1.2707 0.68541-1.3689 2.5531-2.3452 3.6085-1.2002 1.2973-2.8326 2.1292-4.2148 3.2363-2.0658 1.6548-5.1458 2.6355-6.0925 5.0891-0.23574 0.61093 0.62868 1.3866 0.27879 1.9418-0.20814 0.33025-0.86502 0.0704-1.1234 0.36409-0.58238 0.66199-0.38919 1.7158-0.4674 2.589-0.0661 0.73878-0.5315 1.7005 0 2.225 0.55083 0.54349 1.847-0.59758 2.337 0 0.18105 0.22083-0.10397 0.55949-0.1804 0.83334-0.13104 0.4695-0.21502 0.96995-0.4756 1.3835-0.11632 0.18464-0.30132 0.31831-0.46739 0.46118-0.23527 0.20241-0.6866 0.25595-0.74619 0.55827-0.0693 0.3514 0.26599 0.70934 0.55758 0.92233 0.31224 0.22808 0.91934-0.046 1.1316 0.2751 0.39873 0.60308-0.40633 1.4084-0.3772 2.1279 0.0296 0.73203-0.0876 1.7653 0.5576 2.1279 0.87795 0.49334 2.068-0.28375 2.911-0.83336 0.37111-0.24197 0.56156-0.68083 0.84458-1.0194 0.30996-0.37081 0.58485-0.77404 0.93479-1.1084 0.76668-0.73258 1.8368-1.1374 2.5256-1.9418 0.59509-0.69499 0.3909-2.4453 1.312-2.403 0.64352 0.0295 0.5326 1.1589 0.75439 1.7557 0.18037 0.48532 0.18898 1.0427 0.4674 1.4806 0.34015 0.535 1.0443 0.77088 1.4022 1.2945 0.97286 1.4235 1.2637 3.1995 1.8778 4.8059 0.31772 0.83108 0.60107 1.6751 0.93479 2.5 0.44117 1.0906 1.223 2.589 1.4104 3.2363 0.18743 0.64727 0.98955 1.0827 1.2136 1.7557 0.28335 0.85121 0.0984 2.3163 0.0984 2.6861 0 0.36985 0.10335 0.65714 0.369 0.73625 0.4174 0.12428 0.86535-0.30659 1.1316-0.64727 0.57296-0.73314 0.31559-1.8555 0.7462-2.678 0.20415-0.38995 0.52615-0.71297 0.84458-1.0194 0.51039-0.49118 1.2825-0.71675 1.6892-1.2945 0.35456-0.50373 0.46358-1.1494 0.55759-1.7557 0.22201-1.4316 0.0546-2.8975 0-4.3447-0.0314-0.83507-0.52984-1.7352-0.18859-2.5 0.22428-0.50268 0.88866-0.66277 1.312-1.0194 0.45304-0.3817 0.8625-0.81166 1.312-1.1974 0.33563-0.28804 0.72809-0.51396 1.0332-0.83334 0.47664-0.49895 1.0078-1.0144 1.2218-1.6667 0.14396-0.43876 0.30499-1.0341 0-1.3835-0.14428-0.16531-0.52559 0.0791-0.65599-0.0971-0.11104-0.15003 0.0639-0.36621 0.0902-0.55018 0.0352-0.24745 0.10909-0.49516 0.0902-0.74434-0.017-0.22314-0.0101-0.49946-0.18039-0.64727-0.49743-0.43182-1.4143 0.0839-1.968-0.27508-0.55163-0.35761-0.79992-1.0575-1.0332-1.6667-0.19025-0.4969-0.28433-1.0385-0.2788-1.5696 0.007-0.62936 0.29269-1.2279 0.369-1.8528 0.0857-0.70226-0.0752-1.4335 0.0984-2.1198 0.17588-0.69524 0.68414-1.2692 0.93478-1.9418 0.16797-0.45066 0.19517-0.94629 0.37721-1.3916 0.24071-0.58887 0.58509-1.1337 0.93478-1.6667 0.4233-0.64523 0.97355-1.2029 1.4022-1.8447 0.27759-0.41562 0.56854-0.83178 0.75439-1.2945 0.20078-0.49989 0.15045-1.0807 0.3772-1.5696 0.17677-0.38116 0.48249-0.69079 0.74618-1.0194 0.38612-0.48118 1.0301-0.80776 1.2218-1.3916 0.11583-0.35284 0.0854-0.78489-0.0984-1.1084-0.0764-0.13457-0.29343-0.14483-0.37719-0.27509-0.25526-0.39706-0.34231-0.91751-0.27879-1.3835 0.0562-0.41239 0.34266-0.76345 0.56578-1.1165 0.43649-0.69069 1.1323-1.2135 1.5006-1.9418 0.20282-0.40109 0.18505-0.88466 0.369-1.2945 0.11883-0.26478 0.34024-0.47525 0.46739-0.73625 0.32992-0.67727 0.15875-1.6596 0.75438-2.1279 0.44313-0.34834 1.1346-0.0721 1.6892-0.18608 0.30808-0.0633 0.60196-0.36881 0.90199-0.2751 0.94186 0.29417 1.2757 1.4954 1.8122 2.314 0.577 0.88043 1.2862 1.7482 1.5006 2.7751 0.15165 0.7263-0.0202 1.4941-0.1886 2.2169-0.38967 1.6733-1.1765 3.2346-1.8778 4.8059-0.50695 1.1358-0.96566 2.3126-1.681 3.3334-0.67864 0.96851-1.9382 1.5187-2.4354 2.589-0.70704 1.5221-0.84467 3.3404-0.5658 4.992 0.4089 2.4216 1.2216 5.1568 3.1898 6.6587 1.0563 0.80608 2.6535 1.1034 3.936 0.73626 1.2295-0.352 1.7468-1.8772 2.8044-2.589 1.3159-0.88583 2.7594-1.6838 4.3132-2.0308 0.79176-0.17685 1.6308-0.10618 2.4354 0 1.4124 0.18639 3.0416 0.19471 4.1246 1.1084 0.46678 0.39384 0.62581 1.0661 0.75438 1.6586 0.13106 0.60391 0.31314 1.318 0 1.8528-0.93912 1.6038-3.1081 2.1604-4.8789 2.7751-0.77492 0.26901-1.6174 0.29702-2.4354 0.37218-1.8679 0.17164-4.4954-1.2998-5.6251 0.17799-0.31058 0.40628 0.14348 1.027 0.3772 1.4806 0.44327 0.86032 1.545 1.3174 1.8778 2.225 0.2976 0.81152-0.18743 1.6644 0 2.589 0.18743 0.92465 1.0585 0.67277 1.5006 1.1084 0.88269 0.86979 2.8044 1.8521 2.2468 2.9531-0.2517 0.49697-1.1412 0.12765-1.6892 0-0.67811-0.15794-1.2021-0.72531-1.8696-0.92235-1.0257-0.30277-2.1193-0.39328-3.1898-0.37217-1.2009 0.0237-2.755-0.32248-3.5588 0.55826-0.79487 0.87106-0.28941 2.3435-0.1886 3.5114 0.11962 1.3859 0.27393 2.841 0.93479 4.0696 0.64273 1.1949 2.4513 1.6562 2.8126 2.9612 0.15202 0.54913-0.12751 1.1535-0.37719 1.6667-0.51839 1.0654-1.3571 1.9757-2.2468 2.767-0.7726 0.68724-1.5996 1.4884-2.624 1.6667-1.3883 0.24156-2.7357-0.68407-4.1246-0.92235-2.0455-0.35091-4.1105-0.87135-6.1827-0.74433-2.5705 0.15754-6.745 1.8528-7.4947 1.8528-0.74971 0-3.1862 0.92235-3.936 0.92235-0.7497 0-1.6751 0.88327-2.4436 0.55827-1.4675-0.62066-1.8724-2.5955-2.4354-4.0696-0.47087-1.233-0.8601-2.5708-0.74619-3.8836 0.0911-1.0501 0.81995-1.9507 1.1234-2.9612 0.32685-1.0885 0.90461-2.2008 0.74619-3.3253-0.12696-0.90116-0.48924-1.9921-1.312-2.403-0.78809-0.3935-1.918-0.15975-2.624 0.36409-1.0961 0.81339-1.542 2.3592-1.681 3.7056-0.11657 1.1294 0.52666 2.2109 0.74619 3.3253 0.29028 1.4737 0.28323 3.0144 0.75439 4.4418 0.5621 1.703 2.9023 3.0751 2.4354 4.8059-0.17394 0.64475-1.2274 0.62101-1.6892 1.1084-0.68806 0.72627-0.64773 2.0597-1.5006 2.589-0.74226 0.46074-1.7476 0.15505-2.624 0.18609-0.56269 0.02-1.1412 0.12794-1.6892 0-1.086-0.25358-2.267-2.317-2.993-1.4806-0.69861 0.80483 2.0416 1.5431 1.8696 2.589-0.136 0.82692-1.3719 0.9874-2.0582 1.4806-1.3744 0.98771-2.6294 2.1623-4.1246 2.9612-0.87071 0.46525-2.129 0.93318-3.5424 1.3916-2.4459 0.97069-4.0031 2.2522-7.5029 2.7994-0.017 0.0131-0.0483 0.029-0.0984 0.0485-1.069 0.41751-2.8424 0.94965-3.854 1.4887-1.2648 0.67395-2.2404 1.8377-3.5587 2.403-0.52914 0.22686-1.1197 0.46356-1.6892 0.37217-1.0771-0.17283-1.753-1.3784-2.8044-1.6667-0.66364-0.18198-1.3843-0.0948-2.0664 0-0.45059 0.0627-0.96206 0.0851-1.312 0.37217-0.64388 0.52815-1.1747 1.3922-1.1234 2.2169 0.0275 0.44273 0.44722 0.77719 0.74619 1.1084 0.70943 0.786 1.6153 1.3756 2.4436 2.0389 1.1055 0.88522 2.4387 1.5266 3.3702 2.589 0.32914 0.37543 0.54129 0.84113 0.74618 1.2945 0.5632 1.2463 1.1411 2.5295 1.312 3.8836 0.10061 0.79703-0.1804 1.6632-0.1804 2.403 0 0.73974-0.0481 2.0209-0.37719 2.9612-0.47547 1.3583-1.3322 2.5791-2.2468 3.6975-0.86099 1.0528-1.6859 2.3932-3.0012 2.7751-0.67169 0.19505-1.3968-0.17009-2.0664-0.37217-1.0416-0.31438-1.9884-0.87894-2.993-1.2945-1.2409-0.51334-2.474-1.0517-3.7474-1.4806-0.86057-0.28987-1.7464-0.50109-2.624-0.73626-1.6839-0.45125-3.3312-1.1248-5.0675-1.2945-1.1197-0.10941-2.2538 0.0477-3.3702 0.18609-0.63292 0.0784-1.5966-0.20085-1.8778 0.36407-0.43112 0.86606 1.2831 1.6246 1.312 2.589 0.0281 0.93838-0.53606 1.8505-1.1234 2.589-0.57841 0.72733-1.7767 0.86697-2.2468 1.6667-0.25293 0.4303-0.0817 0.99449-0.1886 1.4806-0.222 1.0104-0.35238 2.1018-0.93478 2.9612-0.27077 0.39956-0.74109 0.62443-1.1234 0.92234-0.73702 0.57432-1.7352 0.89485-2.255 1.6667-0.8544 1.2689-0.82592 2.9389-1.1234 4.4337-0.0851 0.42778-0.12119 0.86368-0.1886 1.2945-0.17414 1.113-0.41249 2.2164-0.5576 3.3334-0.0876 0.67425-0.4857 1.4175-0.18859 2.0308 0.8739 1.8039 4.6845 2.5856 5.0593 3.3253 0.37485 0.73973 1.7306 1.9102 2.8126 2.589 0.56923 0.35713 1.2224 0.58693 1.8778 0.74435 1.2806 0.30758 2.6195 0.31007 3.936 0.37217 1.6845 0.0794 3.373-0.0222 5.0593 0 2.2501 0.0296 4.5862 0.79296 6.7485 0.17799 1.0795-0.30701 1.8164-1.3169 2.8044-1.8447 0.83668-0.44699 1.8144-0.61516 2.624-1.1084 0.90759-0.55303 1.5064-1.8539 2.4436-2.0389 0.93713-0.18493 0.17285-1.4756 0.1804-2.2169 0.01-0.9888-0.40747-1.9981-0.1804-2.9612 0.22795-0.967 0.93508-1.7624 1.4924-2.589 0.56773-0.84214 0.99863-1.8828 1.8778-2.403 0.65128-0.38534 1.3096-0.003 2.2468-0.37218 0.93713-0.36986 1.9562-1.3068 3.0012-1.8447 0.84357-0.43419 1.7397-0.76203 2.624-1.1084 0.67914-0.26603 1.6606-0.13949 2.0582-0.74435 0.47708-0.72575-0.24205-1.7261-0.1804-2.589 0.0629-0.88009-0.11026-2.0024 0.55759-2.589 0.98418-0.86459 2.6184-0.34234 3.936-0.3641 1.002-0.0166 2.0068 0.30126 3.0012 0.178 1.8225-0.22591 3.7296-0.63861 5.2479-1.6586 0.7354-0.494 1.0724-1.4063 1.6892-2.0389 0.9814-1.0065 1.8062-2.4447 3.1816-2.7751 1.0022-0.24077 2.3669-0.0583 3.0012 0.74435 0.65211 0.8252-0.40407 2.1718 0 3.1392 0.2025 0.48487 0.74823 0.74502 1.1234 1.1165 0.37379 0.37016 0.74847 0.73941 1.1234 1.1084 0.56237 0.55355 1.1726 1.0632 1.6892 1.6586 0.55355 0.63807 0.98392 1.3713 1.5006 2.0389 0.48502 0.62662 0.87948 1.3486 1.5006 1.8447 0.65176 0.52058 1.6008 0.58903 2.2468 1.1165 0.78844 0.64379 1.0491 1.7993 1.8696 2.403 0.69912 0.51437 1.6357 0.59817 2.4436 0.92235 0.44119 0.17703 0.91792 0.29436 1.312 0.55826 0.36462 0.24416 0.60829 0.63035 0.93478 0.92233 0.65763 0.58811 1.3238 1.1749 2.0582 1.6667 1.0649 0.71322 2.3328 1.1042 3.3784 1.8447 0.75448 0.53431 1.6832 1.0145 2.0582 1.8528 0.22621 0.50581 0.0677 1.1098 0 1.6586-0.0936 0.75838-0.39481 1.478-0.55761 2.225-0.14664 0.67281-0.82373 1.5021-0.37719 2.0308 0.23973 0.28384 0.74892 0 1.1234 0 0.93714 0 0.94742-0.53333 1.312-0.92234 0.74248-0.79226 1.4856-1.715 1.6892-2.7751 0.14138-0.7362-0.0293-1.5508-0.3772-2.2169-0.24259-0.46446-0.89867-0.63528-1.1234-1.1084-0.29349-0.61796-0.56644-1.4672-0.1886-2.0389 0.21579-0.32646 0.73191-0.42414 1.1234-0.37217 0.44703 0.0593 0.69943 0.59242 1.1234 0.74435 1.1238 0.40269 2.6256 1.0996 3.567 0.37216 0.34755-0.26856 0.37895-0.90549 0.1804-1.2945-0.70365-1.3788-2.6981-1.5733-4.1164-2.225-1.0951-0.50318-2.431-0.55488-3.3784-1.2945-0.94949-0.74132-1.0606-2.276-2.0582-2.9531-1.3251-0.89939-3.2876-0.34037-4.6904-1.1165-1.2306-0.68089-2.3264-1.7261-2.993-2.9531-0.60194-1.1081-0.11519-2.6099-0.75438-3.6975-0.0397-0.0675 0.10127-0.57808-0.0337-1.2656-0.8495-0.86684-0.73657-0.55709-1.5526-1.0159-0.53852-0.63241-1.0421-1.583-1.119-1.6927-0.60776-0.86672-1.4938-0.52458-1.4192-1.576 0.0548-0.77167 0.78623-1.3405 1.1234-2.0389 0.49334-1.0219 0.32067-2.5696 1.312-3.1392 0.87129-0.50062 2.048 0.0479 3.0012 0.37218 0.68953 0.23462 1.2148 0.80841 1.8778 1.1084 0.898 0.40638 2.0456 0.30792 2.8126 0.92235 0.25421 2.4067 0.0743 3.0392 1.5252 2.1926 0.35242 0.75952 0.66771 1.5518 1.0988 2.2492 0.4236 0.68538 0.71597 1.4843 1.312 2.0308 0.67551 0.61932 1.6491 0.81919 2.4354 1.2945 1.6835 1.0178 3.2875 2.1615 4.8708 3.3253 1.2834 0.94335 3.2346 1.4654 3.7474 2.9612 0.24721 0.72124-0.59437 1.4564-0.55759 2.2169 0.0537 1.111 0.73413 2.1034 1.1234 3.1473 0.30026 0.80518 0.58415 1.6178 0.93479 2.403 0.39434 0.88296 0.76386 1.79 1.312 2.589 0.84429 1.2308 2.8137 2.5937 3.0012 3.3334 0.18743 0.73972-0.49147 0.85992-0.37719 1.2945 0.22177 0.84357 1.5389 1.0399 1.8778 1.8447 0.28735 0.6824-0.28597 1.5339 0 2.2169 0.40516 0.96762 1.2467 1.875 2.2468 2.225 1.1243 0.39341 2.5125 0.19325 3.5588-0.37218 0.70274-0.37978 1.1938-1.1225 1.5006-1.8528 0.21591-0.51392 0.15712-1.1031 0.1886-1.6586 0.042-0.7405 0.21044-1.513 0-2.225-0.22777-0.77067-0.96236-1.3059-1.312-2.0308-0.42455-0.8802-0.57024-1.8691-0.93479-2.7751-0.3303-0.82091-1.0392-1.5244-1.1316-2.403-0.086-0.81793-0.20128-2.0814 0.5658-2.403 0.67131-0.28138 1.1517 1.1766 1.8778 1.1084 0.74773-0.0701 1.0595-1.0645 1.681-1.4806 0.92551-0.61966 2.1513-0.76319 3.0012-1.4806 0.40803-0.34444 0.42109-1.1402 0.93479-1.2945 0.51139-0.15364 2.278 0.0844 2.0582-0.56934z"/>
      <path id="path3019" d="m593.97 66.453-11.515-6.6597-12.014 5.7106 2.7753-13.01-9.1437-9.6617 13.231-1.3807 6.3632-11.682 5.4016 12.156 13.076 2.4419-9.8922 8.8938z" fill-opacity=".31373" transform="matrix(.28309 0 0 .27425 45.282 453.1)" stroke="#000" stroke-width="3.23"/>
      <path id="path3019-8" d="m593.97 66.453-11.515-6.6597-12.014 5.7106 2.7753-13.01-9.1437-9.6617 13.231-1.3807 6.3632-11.682 5.4016 12.156 13.076 2.4419-9.8922 8.8938z" fill-opacity=".31373" transform="matrix(.28309 0 0 .27425 59.925 433.1)" stroke="#000" stroke-width="3.23"/>
      <path id="path3019-3" d="m593.97 66.453-11.515-6.6597-12.014 5.7106 2.7753-13.01-9.1437-9.6617 13.231-1.3807 6.3632-11.682 5.4016 12.156 13.076 2.4419-9.8922 8.8938z" fill-opacity=".31373" transform="matrix(.28309 0 0 .27425 73.497 421.67)" stroke="#000" stroke-width="3.23"/>
      <path id="path3019-6" d="m593.97 66.453-11.515-6.6597-12.014 5.7106 2.7753-13.01-9.1437-9.6617 13.231-1.3807 6.3632-11.682 5.4016 12.156 13.076 2.4419-9.8922 8.8938z" fill-opacity=".31373" transform="matrix(.28309 0 0 .27425 87.425 408.45)" stroke="#000" stroke-width="3.23"/>
      <path id="path3019-2" d="m593.97 66.453-11.515-6.6597-12.014 5.7106 2.7753-13.01-9.1437-9.6617 13.231-1.3807 6.3632-11.682 5.4016 12.156 13.076 2.4419-9.8922 8.8938z" fill-opacity=".31373" transform="matrix(.28309 0 0 .27425 101.35 400.24)" stroke="#000" stroke-width="3.23"/>
      <path id="path3019-30" d="m593.97 66.453-11.515-6.6597-12.014 5.7106 2.7753-13.01-9.1437-9.6617 13.231-1.3807 6.3632-11.682 5.4016 12.156 13.076 2.4419-9.8922 8.8938z" fill-opacity=".31373" transform="matrix(.28309 0 0 .27425 115.64 394.17)" stroke="#000" stroke-width="3.23"/>
      <path id="path3019-5" d="m593.97 66.453-11.515-6.6597-12.014 5.7106 2.7753-13.01-9.1437-9.6617 13.231-1.3807 6.3632-11.682 5.4016 12.156 13.076 2.4419-9.8922 8.8938z" fill-opacity=".31373" transform="matrix(.28309 0 0 .27425 45.282 598.1)" stroke="#000" stroke-width="3.23"/>
      <path id="path3019-0" d="m593.97 66.453-11.515-6.6597-12.014 5.7106 2.7753-13.01-9.1437-9.6617 13.231-1.3807 6.3632-11.682 5.4016 12.156 13.076 2.4419-9.8922 8.8938z" fill-opacity=".31373" transform="matrix(.28309 0 0 .27425 59.925 617.38)" stroke="#000" stroke-width="3.23"/>
      <path id="path3019-31" d="m593.97 66.453-11.515-6.6597-12.014 5.7106 2.7753-13.01-9.1437-9.6617 13.231-1.3807 6.3632-11.682 5.4016 12.156 13.076 2.4419-9.8922 8.8938z" fill-opacity=".31373" transform="matrix(.28309 0 0 .27425 72.068 632.74)" stroke="#000" stroke-width="3.23"/>
      <path id="path3019-35" d="m593.97 66.453-11.515-6.6597-12.014 5.7106 2.7753-13.01-9.1437-9.6617 13.231-1.3807 6.3632-11.682 5.4016 12.156 13.076 2.4419-9.8922 8.8938z" fill-opacity=".31373" transform="matrix(.28309 0 0 .27425 87.425 645.95)" stroke="#000" stroke-width="3.23"/>
      <path id="path3019-9" d="m593.97 66.453-11.515-6.6597-12.014 5.7106 2.7753-13.01-9.1437-9.6617 13.231-1.3807 6.3632-11.682 5.4016 12.156 13.076 2.4419-9.8922 8.8938z" fill-opacity=".31373" transform="matrix(.28309 0 0 .27425 102.43 657.02)" stroke="#000" stroke-width="3.23"/>
      <path id="path3019-22" d="m593.97 66.453-11.515-6.6597-12.014 5.7106 2.7753-13.01-9.1437-9.6617 13.231-1.3807 6.3632-11.682 5.4016 12.156 13.076 2.4419-9.8922 8.8938z" fill-opacity=".31373" transform="matrix(.28309 0 0 .27425 115.64 664.17)" stroke="#000" stroke-width="3.23"/>
      <rect id="rect3882-67" fill-opacity=".31373" rx=".7992" height="61.78" width="1.9138" stroke="#000" y="602.37" x="278.33" stroke-width=".9"/>
      <rect id="rect3882-67-8" fill-opacity=".31373" rx=".7992" height="54.28" width="1.9138" stroke="#000" y="601.29" x="264.4" stroke-width=".9"/>
      <rect id="rect3882-67-5" fill-opacity=".31373" rx=".7992" height="45.708" width="1.9138" stroke="#000" y="601.29" x="250.83" stroke-width=".9"/>
      <rect id="rect3882-67-4" fill-opacity=".31373" rx=".7992" height="32.494" width="1.9138" stroke="#000" y="600.94" x="236.9" stroke-width=".9"/>
      <rect id="rect3882-67-2" fill-opacity=".31373" rx=".7992" height="17.137" width="1.9138" stroke="#000" y="601.29" x="222.97" stroke-width=".9"/>
      <rect id="rect3882-67-53" fill-opacity=".31373" rx=".7992" height="28.208" width="1.9138" stroke="#000" y="620.94" x="209.4" stroke-width=".9"/>
      <rect id="rect3882-67-6" fill-opacity=".31373" rx=".7992" height="24.28" width="1.9138" stroke="#000" y="639.51" x="223.33" stroke-width=".9"/>
      <rect id="rect3882-67-7" fill-opacity=".31373" rx=".7992" height="21.423" width="1.9138" stroke="#000" y="653.79" x="236.9" stroke-width=".9"/>
      <rect id="rect3882-67-3" fill-opacity=".31373" rx=".7992" height="15.708" width="1.9138" stroke="#000" y="667.72" x="251.9" stroke-width=".9"/>
      <rect id="rect3882-67-0" fill-opacity=".31373" rx=".7992" height="15.351" width="1.9138" stroke="#000" y="677.72" x="265.47" stroke-width=".9"/>
      <rect id="rect3882-67-87" fill-opacity=".31373" rx=".7992" height="12.851" width="1.9138" stroke="#000" y="685.58" x="279.04" stroke-width=".9"/>
      <rect id="rect3882-67-06" fill-opacity=".31373" rx=".7992" height="36.601" width="1.9138" stroke="#000" y="443.3" x="236.93" stroke-width=".9"/>
      <rect id="rect3882-67-00" fill-opacity=".31373" rx=".7992" height="24.994" width="1.9138" stroke="#000" y="455.04" x="223.86" stroke-width=".9"/>
      <rect id="rect3882-67-63" fill-opacity=".31373" rx=".7992" height="8.3868" width="1.9138" stroke="#000" y="472.19" x="209.76" stroke-width=".9"/>
      <rect id="rect3882-67-69" fill-opacity=".31373" rx=".7992" height="15.351" width="1.9138" stroke="#000" y="438.26" x="209.94" stroke-width=".9"/>
      <rect id="rect3882-67-694" fill-opacity=".31373" rx=".7992" height="12.672" width="1.9138" stroke="#000" y="420.4" x="224.04" stroke-width=".9"/>
      <rect id="rect3882-67-694-6" fill-opacity=".31373" rx=".7992" height="12.672" width="1.9138" stroke="#000" y="410.49" x="237.08" stroke-width=".9"/>
      <rect id="rect3882-67-694-2" fill-opacity=".31373" rx=".7992" height="12.672" width="1.9138" stroke="#000" y="398.35" x="251.9" stroke-width=".9"/>
      <rect id="rect3882-67-694-7" fill-opacity=".31373" rx=".7992" height="11.422" width="1.9138" stroke="#000" y="391.03" x="264.76" stroke-width=".9"/>
      <rect id="rect3882-67-694-28" fill-opacity=".31373" rx=".7992" height="10.53" width="1.9138" stroke="#000" y="385.67" x="279.94" stroke-width=".9"/>
      <rect id="rect3882-67-694-64" fill-opacity=".31373" rx=".7992" height="24.458" width="1.9138" stroke="#000" y="416.74" x="278.86" stroke-width=".9"/>
      <rect id="rect3882-67-694-26" fill-opacity=".31373" rx=".7992" height="19.28" width="1.9138" stroke="#000" y="422.45" x="265.11" stroke-width=".9"/>
      <rect id="rect3882-67-694-1" fill-opacity=".31373" rx=".7992" height="24.637" width="1.9138" stroke="#000" y="431.74" x="252.26" stroke-width=".9"/>
      <path id="path5835" stroke-width=".9" stroke="#000" fill-opacity=".31373" d="m407.5 456.66-5.7188 8.5625c-2.0391 3.5102-4.8633 3.8177-7.8438 3.5625l-46.78-1.78-26.438 76.438 2.5 2.125c19.304-7.5955 52.639-14.742 52.844 26.094 0.0598 11.913-16.457 38.872-31.781 38.219-6.2353-0.26569-14.572-5.5404-15.344-11.438-1.137-8.6846-1.2374-21.952-18.594-18.562-7.2707 1.4198-13.61 10.355-7.8438 22.5 2.5639 5.4001 13.532 10.374 21.438 13.188 5.9958 2.1341 12.573 3.1252 18.906 2.5 11.764-1.1614 26.447-6.0781 33.594-11.406 4.1163-3.0688 19.015-16.315 22.125-32.875l2.875-0.34375c0.37414 15.083 0.88346 41.809 30 44.281 5.2324 0.44436 29.217-10.266 37.5-20 12.334-14.495 22.275-30.6 27.5-49.281 5.094-18.212 9.8076-31.797 4.625-57.875-1.4227-7.1589-7.7058-21.629-18.219-24.281-15.276-3.8537-30.222 2.8775-36.406 8.2188-5.1623 4.4585-27.202 22.77-35.375 47.156-4.4561 13.296-7.399 22.908-8.5625 32.844h-2.8438c1.778-11.759-7.9651-20.3-16.812-26.438-12.053-8.3612-27.592-9.3527-43.906-5.6875l13.562-34.656 51.781 0.71875 11.438-27.875zm59.031 15.812c0.57548-0.008 1.1432 0.0664 1.6875 0.25 19.318 6.5165 10.282 49.428 4.625 73.219-5.5544 23.36-23.11 65.439-36.406 62.125-19.123-4.7666-10.689-50.911-4.6562-75.344 5.3456-21.651 23.049-60.085 34.75-60.25z"/>
      <path id="path7998-6" fill="url(#linearGradient7423)" d="m418 633.22c-0.64013 1.1984-1.0528 2.5426-1.1842 4.0011-0.0712 1.3391 0.0392 2.5632 0.29327 3.6689 0.44655-2.5138 0.74642-5.0733 0.8909-7.67z"/>
      <path id="path9175" stroke-width=".9" stroke="#000" fill-opacity=".31373" d="m429.48 627.43c-5.4175 0.002-9.6853 4.0245-10.139 9.7989-0.31471 6.7899 3.3682 10.668 7.4847 10.74 4.5392-0.0464 8.0803-2.5224 9.7142-9.6027-0.29399-0.13826 1.3037-9.2794-7.06-10.936zm-1.2161 1.1576c0.31539-0.01 0.64116 0.008 0.97962 0.0604 5.2698 2.5662 4.4558 4.7283 4.4107 9.356-0.81017 4.0591-2.3952 9.2696-6.9442 8.5005 0 0-6.0054-0.26883-4.681-9.7637 1.1996-5.0925 3.1861-8.0574 6.2348-8.1532z"/>
      <path id="path3067" stroke-width=".9" stroke="#000" fill-opacity=".12941" d="m361.28 629.05-1.4332 0.0755c-0.0263 0.008-0.0577 0.0172-0.083 0.0252-0.45352 0.14242 1.3799-0.10489 1.5162-0.0453 0.00016-0.005 0-0.0554 0-0.0554z"/>
      <path id="path7994-4" stroke-width=".9" stroke="#000" fill-opacity=".31373" d="m373.23 631.8-0.0154-2.4124 0.0352-1.755c0.005-0.29176-14.151-0.1438-14.151-0.1438s-0.48439 0.38379-0.53661 0.65074c-0.0546 0.27871 0.0454 0.6158 0.26831 0.81343 0.24336 0.21584 0.98379 0.24403 0.98379 0.24403l1.5204-0.0813s-0.34937 10.629-2.3253 15.537c-0.13365 0.33196-0.35413 0.64214-0.62605 0.89477-0.22557 0.20957-0.52771 0.33821-0.80491 0.48805-0.55024 0.29744-1.8313 0.24379-1.6993 0.81344 0.17881 0.77122 1.7281 0.1243 2.5936 0.16268 1.0426 0.0462 3.1302 0.0813 3.1302 0.0813h3.0408l3.488 0.16269 2.4148-0.16269 1.6098-0.97611s0.3121-0.91834 0.44718-1.3828c0.13312-0.45779 0.41814-0.9125 0.35774-1.3828-0.0387-0.30111-0.16365-0.65406-0.44718-0.81344-0.15216-0.0855-0.39614-0.10072-0.53661 0-0.60189 0.4316-0.10364 1.4584-0.53662 2.0336-0.26631 0.35374-1.1626 0.73208-1.1626 0.73208l-1.1627 0.48806-2.5042 0.32538h-3.488l-0.71548-0.32538-0.71549-0.81343 0.35774-1.8709 0.9838-5.206 0.89435-0.32538h4.2929l0.35774 0.32538v2.1962l0.62605 0.5694 0.62605-0.5694-0.17887-3.091 1.1626-2.2776-0.44716-0.73208h-0.35775l-0.80492 1.2201-0.62605 0.73209-0.80492 0.32537-2.3253 0.24403h-1.3415l-0.62605-0.16269 1.3415-7.3209 2.3253-0.32537h2.5936l1.6098 0.0813 0.44718 0.97611 0.24118 2.1207c0.3966 0.31436 0.79318 0.12453 1.1898-0.0871z"/>
      <path id="path7996" stroke-width=".9" stroke="#000" fill-opacity=".31373" d="m377.97 627.87 3.162 0.0863 2.6877-0.0287h1.4229l0.18971 0.34511-0.0948 0.34511s-0.25297 0.0287-0.41107 0.0287h-0.60078l-0.98023 0.17256-0.56916 0.34511-0.0948 0.20131-0.18972 1.0353-1.7707 10.813-0.12648 1.553 0.0632 1.2942 0.50592 0.94905 1.7075 0.97781 2.4348 0.17256 1.9921-0.43139 1.2016-0.94905 1.0118-1.1504 0.75889-1.7831 0.60078-2.9909 0.72726-4.1125 0.41107-2.0131c0.0211-0.97932 0.0107-1.0322 0.0316-1.5818l0.0633-1.0066-0.0316-0.6327-0.0633-0.54642-0.44268-0.17256h-0.91699l-0.50592-0.14379-0.0948-0.40263 0.0317-0.31635 0.4743-0.0575 1.9288 0.0287 2.245 0.0287 1.1067 0.0287 0.0316 0.48891-0.12648 0.28759c-0.34783-0.0318-0.69565-0.016-1.0435 0.0287-0.65875 0.15339-0.6644 0.78196-0.9486 1.2079l-0.91699 3.6524-1.7075 8.6852-1.4229 3.106c-0.93859 0.99458-1.9921 1.4667-3.0988 1.6968-1.2648 0.28932-2.5296 0.42837-3.7944 0.25883-1.3388-0.1291-2.4106-0.62254-3.415-1.2079-0.6871-0.54979-1.1765-1.3993-1.6126-2.3295 0.0729-2.2083 0.21292-4.3963 0.53754-6.5283l1.2332-7.3911c0.18512-0.71556 0.0573-1.1058-0.34781-1.2079l-1.6126-0.0863-0.0316-0.40262z"/>
      <path id="path9170" stroke-width=".9" stroke="#000" fill-opacity=".31373" d="m401.73 627.83c-0.31763 0.20804-0.51633 0.47213-0.35968 0.89585l1.8316 0.48818-2.5233 15.899c-0.0218 0.13663 0.0241 0.30182-0.0664 0.41269-0.0832 0.1021-0.15467 0.0617-0.38182 0.16105-0.4714 0.20615-1.2609 0.56862-1.6767 0.86565-0.13787 0.0985 0.0989 0.48833 0.27115 0.51838 3.139 0.54794 7.1578 0.0223 7.2932 0.14092l0.12728-0.66937-2.3241-0.44792c-0.2983-0.0574-0.61108-0.48046-0.53676-0.77506 0.66751-2.6455 1.2205-7.8459 1.8316-7.9267l1.0292 0.40263c0.55402 0.27285 0.68023 0.46968 0.80236 0.44792 0 0 1.9333 6.7229 4.8308 8.5407 1.0989 0.68942 2.7107 0.78757 3.9786 0.40766 0.27048-0.0811 0.68001-0.27333 0.63083-0.52845-0.0565-0.29279-0.60662-0.23117-0.9075-0.34726l-2.0474-0.79016-4.2442-7.8915c5.8559-2.7074 6.0654-7.2209 1.5605-9.4768l-9.1193-0.32714zm4.3881 19.381-0.005 0.0202c0.0127-0.009 0.0121-0.0143 0.005-0.0202zm1.7265-18.365c0.35541 0.005 0.71687 0.038 0.95177 0.0453 0.64489 0.02 1.3083 0.019 1.8316 0.36236 0.6003 0.39389 0.89021 1.0096 1.0292 1.6709 0.14303 0.68028 0.005 1.3924-0.1328 2.0735-0.17046 0.83903-0.31088 1.744-0.85217 2.4409-0.44207 0.56914-1.1198 1.0004-1.8316 1.2582-0.62699 0.22712-1.3405 0.24272-2.0142 0.20635-0.45838-0.0248-1.3812 0.12901-1.3391-0.28687 0.30407-3.0071 1.251-6.6368 1.2063-7.363-0.0219-0.35572 0.55862-0.41619 1.151-0.40766z"/>
      <path id="path6400" stroke-width=".9" stroke="#000" fill-opacity=".31373" d="m342.14 652.72c0.41548 2.4968 2.6885 2.09 2.8571 0l2.8571-10.179c2.1594-5.1244-1.2264-4.7306-2.6786-2.5-21.097-2.2516-29.002 0.7759-31.964 2.8571-9.8952 6.9521-12.168 14.27-11.964 21.786 0.40773 15.032 12.719 18.639 18.393 19.821 3.9269 0.81863 10.553 0.76837 15.893-0.35714 2.1105-0.44481 3.4322-1.3859 4.8214-3.0357 2.7037-3.2109 4.8214-11.964 4.8214-11.964-0.72667-1.6048-1.8373-1.2896-3.0357-0.53572-2.5997 5.7992-6.538 11.894-11.786 11.964 0 0-16.433 1.1666-18.393-15-1.6194-13.361 9.0785-22.502 19.107-23.393 11.323-1.0064 11.25 6.0714 11.25 6.0714z"/>
      <path id="path7994-4-8" stroke-width=".9" stroke="#000" fill-opacity=".31373" d="m372.59 660-0.0241-3.587 0.0551-2.6095c0.008-0.43383-22.147-0.21382-22.147-0.21382s-0.75811 0.57066-0.83984 0.9676c-0.0855 0.41441 0.0711 0.91564 0.41993 1.2095 0.38088 0.32094 1.5397 0.36285 1.5397 0.36285l2.3796-0.12088s-0.5468 15.804-3.6394 23.102c-0.20918 0.49359-0.55425 0.9548-0.97983 1.3304-0.35304 0.31162-0.82593 0.5029-1.2598 0.7257-0.86118 0.44226-2.8662 0.36249-2.6596 1.2095 0.27985 1.1468 2.7046 0.18483 4.0593 0.2419 1.6318 0.0687 4.8992 0.12088 4.8992 0.12088h4.7592l5.459 0.24191 3.7794-0.24191 2.5196-1.4514s0.48846-1.3655 0.69988-2.0562c0.20835-0.68069 0.65444-1.3568 0.55991-2.0562-0.0606-0.44773-0.25613-0.97254-0.69989-1.2095-0.23815-0.12713-0.62001-0.14976-0.83985 0-0.94202 0.64175-0.16222 2.1685-0.83987 3.0238-0.4168 0.52599-1.8197 1.0886-1.8197 1.0886l-1.8197 0.7257-3.9193 0.48382h-5.4591l-1.1198-0.48382-1.1198-1.2095 0.5599-2.7818 1.5398-7.7408 1.3998-0.48381h6.7188l0.55991 0.48381v3.2657l0.97983 0.84665 0.97983-0.84665-0.27994-4.5961 1.8197-3.3866-0.69985-1.0885h-0.55991l-1.2598 1.8142-0.97983 1.0886-1.2598 0.48379-3.6394 0.36286h-2.0996l-0.97983-0.24191 2.0996-10.886 3.6394-0.4838h4.0593l2.5196 0.12089 0.69987 1.4514 0.37748 3.1533c0.62071 0.46743 1.2414 0.18517 1.8622-0.12951z"/>
      <path id="path6420" stroke-width=".9" stroke="#000" fill-opacity=".31373" d="m373.39 680.76 2.6786-0.17857c0.77381-0.0801 1.5476 0.98577 2.3214-1.7857l5.7143-17.679c0.89788-3.9762-2.1723-4.3451-6.0714-4.2857v-2.8571h10.893l10.893 21.607 3.0357-14.821c1.1578-3.8471-0.40893-2.9513-1.4286-3.75h-3.9286v-2.6786l15-0.17857-0.17857 2.6786c-1.4824 0.33163-3.2314-0.93622-4.2857 1.9643l-4.81 20.37 1.79 2.68c1.0447 1.3259 1.6045 2.4094-0.17857 2.3214l-6.6071 0.17857-11.786-21.607-4.1071 14.821c-1.7364 3.7812 0.68131 2.9232 2.5 2.8572l4.8214 0.17857v2.8571l-16.429 0.35715z"/>
      <path id="path6422" stroke-width=".9" stroke="#000" fill-opacity=".31373" d="m415.36 683.43v-2.3214l4.64-1.07c1.0977 0.40284 1.6826-1.2457 2.3214-2.6786l5.5357-18.571c1.9217-4.4236-2.2667-2.9907-4.2857-3.0357-2.7212 1.3901-5.4064 3.2271-6.25 6.9643-3.1149 1.1705-2.7964-0.11143-2.6786-1.25l2.1429-5.8929c0.78797-0.91554 0.68774-2.2752 3.2143-2.3214l23.571 0.17857c1.8773-0.0426 2.1956 1.6046 1.7397 3.3979l-0.84682 4.8164c-1.7803 2.8627-2.5296 1.0858-3.3929-0.17858l0.53571-3.0357c-0.0546-3.0466-6.3943-3.6728-7.6786-0.53571l-5.5357 20.179c-1.0465 2.4197 1.6089 1.7545 3.2143 1.9643 2.1797 1.3095 2.7368 2.619 3.0357 3.9286z"/>
    </g>
  </g>
  <metadata>
    <rdf:RDF>
      <cc:Work>
        <dc:format>image/svg+xml</dc:format>
        <dc:type rdf:resource="http://purl.org/dc/dcmitype/StillImage"/>
        <cc:license rdf:resource="http://creativecommons.org/licenses/publicdomain/"/>
        <dc:publisher>
          <cc:Agent rdf:about="http://openclipart.org/">
            <dc:title>Openclipart</dc:title>
          </cc:Agent>
        </dc:publisher>
        <dc:title>50 euro cent</dc:title>
        <dc:date>2013-10-07T19:32:27</dc:date>
        <dc:description>coin of 50 euro cent &#xD;\nused Clipart: &#xD;\nhttp://openclipart.org/detail/148465/1-euro-by-lolonene</dc:description>
        <dc:source>http://openclipart.org/detail/184668/50-euro-cent-by-frankes-184668</dc:source>
        <dc:creator>
          <cc:Agent>
            <dc:title>frankes</dc:title>
          </cc:Agent>
        </dc:creator>
        <dc:subject>
          <rdf:Bag>
            <rdf:li>cent</rdf:li>
            <rdf:li>coin</rdf:li>
            <rdf:li>euro</rdf:li>
            <rdf:li>money</rdf:li>
          </rdf:Bag>
        </dc:subject>
      </cc:Work>
      <cc:License rdf:about="http://creativecommons.org/licenses/publicdomain/">
        <cc:permits rdf:resource="http://creativecommons.org/ns#Reproduction"/>
        <cc:permits rdf:resource="http://creativecommons.org/ns#Distribution"/>
        <cc:permits rdf:resource="http://creativecommons.org/ns#DerivativeWorks"/>
      </cc:License>
    </rdf:RDF>
  </metadata>
</svg>
